<svg width="54" height="54" viewBox="0 0 54 54" fill="none" xmlns="http://www.w3.org/2000/svg">
<path d="M54.0001 50.4V49.5C54.0001 49.0226 53.8105 48.5648 53.4729 48.2272C53.1354 47.8896 52.6775 47.7 52.2001 47.7H51.491C51.565 47.4967 51.6142 47.2851 51.6376 47.07L53.0876 31.743C53.1238 31.3709 53.0819 30.9953 52.9644 30.6403C52.847 30.2854 52.6567 29.9589 52.4057 29.6818C52.1547 29.4047 51.8486 29.1831 51.5069 29.0312C51.1653 28.8794 50.7956 28.8006 50.4217 28.8H29.4679C28.46 24.9805 27.9333 21.0501 27.9001 17.1V11.7C27.9001 8.59697 26.6675 5.62103 24.4733 3.42685C22.2791 1.23267 19.3032 0 16.2001 0C13.0971 0 10.1212 1.23267 7.927 3.42685C5.73282 5.62103 4.50015 8.59697 4.50015 11.7V17.1C4.45224 21.9346 3.67892 26.7347 2.20605 31.3398C1.51803 31.9202 0.964393 32.6432 0.583501 33.4587C0.202609 34.2743 0.00356181 35.1629 0.000148253 36.063V51.3C-0.00729947 52.0075 0.266129 52.689 0.760469 53.1952C1.25481 53.7013 1.92971 53.9907 2.63715 54H50.4002C51.3549 54 52.2706 53.6207 52.9457 52.9456C53.6209 52.2705 54.0001 51.3548 54.0001 50.4ZM51.068 30.8862C51.1523 30.9782 51.2163 31.0871 51.2557 31.2056C51.2951 31.3241 51.309 31.4496 51.2965 31.5738L49.8466 46.8954C49.828 47.1146 49.7277 47.3189 49.5658 47.4679C49.4038 47.6168 49.1919 47.6997 48.9718 47.7H28.4284C28.2085 47.6997 27.9967 47.617 27.8348 47.4682C27.6729 47.3194 27.5726 47.1154 27.5536 46.8963L26.1001 31.5738C26.0877 31.4496 26.1016 31.3241 26.141 31.2056C26.1804 31.0871 26.2444 30.9782 26.3287 30.8862C26.4105 30.7951 26.5108 30.7225 26.6228 30.6731C26.7349 30.6238 26.8561 30.5988 26.9785 30.6H50.4217C50.5436 30.5993 50.6641 30.6245 50.7755 30.6738C50.8869 30.7232 50.9866 30.7956 51.068 30.8862ZM26.9785 28.8C26.6207 28.8015 26.2668 28.8749 25.9378 29.0158C25.6088 29.1566 25.3115 29.362 25.0633 29.6199L21.2401 29.0178C21.0883 28.9934 20.9502 28.9153 20.8511 28.7977C20.752 28.6801 20.6984 28.5308 20.7001 28.377V27.4275C21.8436 26.64 22.8182 25.6321 23.567 24.463C24.3158 23.2939 24.8236 21.987 25.0606 20.619C25.4717 20.5291 25.8638 20.3677 26.2189 20.142C26.4335 23.0624 26.8981 25.959 27.6076 28.8H26.9785ZM24.3001 15.3C24.7775 15.3 25.2354 15.4896 25.5729 15.8272C25.9105 16.1648 26.1001 16.6226 26.1001 17.1C26.1001 17.5774 25.9105 18.0352 25.5729 18.3728C25.2354 18.7104 24.7775 18.9 24.3001 18.9C24.0871 18.9001 23.881 18.9758 23.7185 19.1135C23.556 19.2513 23.4477 19.4422 23.4127 19.6524C22.5082 25.0749 18.9622 27 16.2001 27C13.438 27 9.89205 25.0749 8.98755 19.6524C8.95261 19.4422 8.84426 19.2513 8.68177 19.1135C8.51928 18.9758 8.31318 18.9001 8.10015 18.9C7.62276 18.9 7.16492 18.7104 6.82736 18.3728C6.48979 18.0352 6.30015 17.5774 6.30015 17.1C6.30015 16.6226 6.48979 16.1648 6.82736 15.8272C7.16492 15.4896 7.62276 15.3 8.10015 15.3C8.33884 15.3 8.56776 15.2052 8.73654 15.0364C8.90533 14.8676 9.00015 14.6387 9.00015 14.4C8.99722 14.1596 9.08405 13.9268 9.24367 13.747C9.40329 13.5673 9.62421 13.4535 9.86325 13.428C13.098 13.2944 16.185 12.0376 18.5932 9.8739C18.969 10.7035 19.5231 11.4401 20.2159 12.0312C20.9088 12.6223 21.7234 13.0535 22.6018 13.2939C22.823 13.3413 23.0218 13.4615 23.1665 13.6353C23.3112 13.8091 23.3935 14.0264 23.4001 14.2524V14.4C23.4001 14.6387 23.495 14.8676 23.6638 15.0364C23.8325 15.2052 24.0615 15.3 24.3001 15.3ZM13.5001 28.377V28.3257C15.2446 28.9583 17.1557 28.9583 18.9001 28.3257V28.377C18.8961 28.962 19.1032 29.5288 19.4834 29.9734C19.8637 30.418 20.3916 30.7104 20.9701 30.7971L21.8368 30.9339C20.845 33.102 18.9559 34.2 16.2001 34.2C13.4443 34.2 11.5543 33.1011 10.5679 30.933L11.4337 30.7971C12.0117 30.7097 12.5387 30.4169 12.9182 29.9724C13.2977 29.5279 13.5043 28.9615 13.5001 28.377ZM16.2001 1.8C17.5008 1.7981 18.789 2.05288 19.991 2.54973C21.1929 3.04658 22.2851 3.77574 23.2047 4.69541C24.1244 5.61509 24.8536 6.70721 25.3504 7.90919C25.8473 9.11117 26.102 10.3994 26.1001 11.7V13.9932C25.7946 13.8119 25.4636 13.6772 25.1182 13.5936C24.9882 13.0985 24.7275 12.6474 24.3633 12.2877C23.9991 11.9279 23.5449 11.6727 23.0482 11.5488C22.4224 11.3703 21.8433 11.0568 21.3518 10.6303C20.8602 10.2037 20.4682 9.67457 20.2033 9.0801C20.0796 8.82226 19.8959 8.59782 19.6676 8.42558C19.4393 8.25333 19.173 8.1383 18.8911 8.0901C18.6088 8.04114 18.3188 8.05947 18.0448 8.14361C17.7709 8.22774 17.5206 8.3753 17.3143 8.5743C15.2114 10.4456 12.5232 11.5274 9.71025 11.6343C9.1631 11.6846 8.6434 11.897 8.21759 12.2442C7.79177 12.5915 7.47921 13.0579 7.31985 13.5837C6.96085 13.6663 6.61686 13.8042 6.30015 13.9923V11.7C6.30324 9.07531 7.34727 6.559 9.20321 4.70306C11.0592 2.84712 13.5755 1.8031 16.2001 1.8ZM6.18045 20.1411C6.53561 20.3676 6.92807 20.5294 7.33965 20.619C7.5767 21.987 8.0845 23.2939 8.83328 24.463C9.58206 25.6321 10.5567 26.64 11.7001 27.4275V28.377C11.7017 28.5315 11.6475 28.6813 11.5475 28.799C11.4475 28.9167 11.3083 28.9944 11.1556 29.0178L5.27865 29.9439C4.99388 29.9869 4.71263 30.0507 4.43715 30.1347C5.34892 26.8697 5.93291 23.522 6.18045 20.1411ZM1.80015 51.3V36.063C1.8037 35.0112 2.18363 33.9953 2.87119 33.1993C3.55874 32.4033 4.50851 31.8797 5.54865 31.7232L8.74005 31.221C9.55275 33.2784 11.5111 36 16.2001 36C20.8891 36 22.8475 33.2784 23.6602 31.2219L24.3163 31.3254C24.3055 31.4644 24.3055 31.604 24.3163 31.743L25.7626 47.07C25.7859 47.2852 25.8351 47.4967 25.9093 47.7H25.2001C24.7228 47.7 24.2649 47.8896 23.9274 48.2272C23.5898 48.5648 23.4001 49.0226 23.4001 49.5V50.4C23.4039 51.0338 23.5766 51.6552 23.9005 52.2H2.63715C2.40692 52.1913 2.18952 52.0917 2.03262 51.923C1.87572 51.7543 1.79212 51.5303 1.80015 51.3ZM52.2001 50.4C52.2001 50.8774 52.0105 51.3352 51.6729 51.6728C51.3354 52.0104 50.8775 52.2 50.4002 52.2H27.0001C26.5228 52.2 26.0649 52.0104 25.7274 51.6728C25.3898 51.3352 25.2001 50.8774 25.2001 50.4V49.5H52.2001V50.4Z" fill="#959595"/>
<path d="M31.4992 44.9999H33.2992C33.7766 44.9999 34.2344 44.8103 34.572 44.4727C34.9096 44.1351 35.0992 43.6773 35.0992 43.1999V41.3999C35.0972 40.944 34.9223 40.5058 34.6097 40.1739C34.2972 39.842 33.8703 39.641 33.4153 39.6116C33.5313 38.9635 33.8412 38.3658 34.3042 37.8977C34.7672 37.4296 35.3614 37.113 36.0082 36.9899C36.0312 37.45 36.2298 37.8837 36.563 38.2018C36.8961 38.5199 37.3386 38.6982 37.7992 38.6999H39.5992C40.0599 38.6982 40.5023 38.5199 40.8355 38.2018C41.1687 37.8837 41.3672 37.45 41.3902 36.9899C42.0389 37.1092 42.6354 37.4245 43.0993 37.8933C43.5632 38.3621 43.8723 38.9618 43.9849 39.6116C43.5296 39.6406 43.1023 39.8414 42.7894 40.1733C42.4765 40.5053 42.3013 40.9437 42.2992 41.3999V43.1999C42.2992 43.6773 42.4889 44.1351 42.8264 44.4727C43.164 44.8103 43.6218 44.9999 44.0992 44.9999H45.8992C46.3766 44.9999 46.8344 44.8103 47.172 44.4727C47.5096 44.1351 47.6992 43.6773 47.6992 43.1999V41.3999C47.6992 40.9225 47.5096 40.4647 47.172 40.1271C46.8344 39.7896 46.3766 39.5999 45.8992 39.5999H45.82C45.6681 38.6145 45.2652 37.6847 44.65 36.8999H46.7992C47.0379 36.8999 47.2668 36.8051 47.4356 36.6363C47.6044 36.4675 47.6992 36.2386 47.6992 35.9999C47.6992 35.7612 47.6044 35.5323 47.4356 35.3635C47.2668 35.1947 47.0379 35.0999 46.7992 35.0999H41.3992C41.3992 34.6225 41.2096 34.1647 40.872 33.8271C40.5344 33.4896 40.0766 33.2999 39.5992 33.2999H37.7992C37.3218 33.2999 36.864 33.4896 36.5264 33.8271C36.1889 34.1647 35.9992 34.6225 35.9992 35.0999H30.5992C30.3605 35.0999 30.1316 35.1947 29.9628 35.3635C29.794 35.5323 29.6992 35.7612 29.6992 35.9999C29.6992 36.2386 29.794 36.4675 29.9628 36.6363C30.1316 36.8051 30.3605 36.8999 30.5992 36.8999H32.7511C32.136 37.6847 31.7331 38.6145 31.5811 39.5999H31.4992C31.0218 39.5999 30.564 39.7896 30.2264 40.1271C29.8889 40.4647 29.6992 40.9225 29.6992 41.3999V43.1999C29.6992 43.6773 29.8889 44.1351 30.2264 44.4727C30.564 44.8103 31.0218 44.9999 31.4992 44.9999ZM45.8992 43.1999H44.0992V41.3999H45.8992V43.1999ZM37.7992 35.0999H39.5992V36.8999H37.7992V35.0999ZM31.4992 41.3999H33.2992V43.1999H31.4992V41.3999ZM45.6364 14.0498L40.8592 4.88962C40.6498 4.49992 40.3387 4.17426 39.959 3.94724C39.5793 3.72022 39.1452 3.60034 38.7028 3.60034C38.2604 3.60034 37.8263 3.72022 37.4466 3.94724C37.0669 4.17426 36.7558 4.49992 36.5464 4.88962L31.762 14.0498C31.5501 14.4581 31.4645 14.9202 31.5161 15.3773C31.5677 15.8344 31.7542 16.2658 32.0518 16.6166L34.4548 19.3913C34.0989 19.6395 33.8081 19.9698 33.6069 20.3543C33.4057 20.7387 33.3002 21.166 33.2992 21.5999V23.3999C33.2992 24.116 33.5837 24.8028 34.09 25.3091C34.5964 25.8155 35.2831 26.0999 35.9992 26.0999H41.3992C42.1153 26.0999 42.8021 25.8155 43.3084 25.3091C43.8148 24.8028 44.0992 24.116 44.0992 23.3999V21.5999C44.0982 21.166 43.9927 20.7387 43.7915 20.3543C43.5904 19.9698 43.2995 19.6395 42.9436 19.3913L45.3574 16.6013C45.6508 16.2512 45.8338 15.8219 45.8835 15.3678C45.9331 14.9137 45.8472 14.4551 45.6364 14.0498ZM39.5992 14.3999C39.5992 14.5779 39.5464 14.7519 39.4475 14.8999C39.3486 15.0479 39.2081 15.1633 39.0436 15.2314C38.8792 15.2995 38.6982 15.3174 38.5236 15.2826C38.3491 15.2479 38.1887 15.1622 38.0628 15.0363C37.937 14.9104 37.8512 14.7501 37.8165 14.5755C37.7818 14.4009 37.7996 14.22 37.8677 14.0555C37.9358 13.891 38.0512 13.7505 38.1992 13.6516C38.3472 13.5527 38.5212 13.4999 38.6992 13.4999C38.9379 13.4999 39.1668 13.5947 39.3356 13.7635C39.5044 13.9323 39.5992 14.1612 39.5992 14.3999ZM42.2992 23.3999C42.2992 23.6386 42.2044 23.8675 42.0356 24.0363C41.8668 24.2051 41.6379 24.2999 41.3992 24.2999H35.9992C35.7605 24.2999 35.5316 24.2051 35.3628 24.0363C35.194 23.8675 35.0992 23.6386 35.0992 23.3999V21.5999C35.0992 21.3612 35.194 21.1323 35.3628 20.9635C35.5316 20.7947 35.7605 20.6999 35.9992 20.6999H41.3992C41.6379 20.6999 41.8668 20.7947 42.0356 20.9635C42.2044 21.1323 42.2992 21.3612 42.2992 21.5999V23.3999ZM43.9858 15.4385L40.9888 18.8999H36.4105L33.4243 15.4511C33.3571 15.3743 33.3148 15.2789 33.3029 15.1775C33.291 15.0761 33.3101 14.9735 33.3577 14.8832L37.7992 6.37102V11.8655C37.1987 12.0778 36.6926 12.4956 36.3704 13.045C36.0481 13.5943 35.9304 14.2399 36.0381 14.8677C36.1458 15.4954 36.472 16.0649 36.9589 16.4754C37.4459 16.8859 38.0623 17.1111 38.6992 17.1111C39.3361 17.1111 39.9525 16.8859 40.4395 16.4754C40.9265 16.0649 41.2526 15.4954 41.3603 14.8677C41.468 14.2399 41.3504 13.5943 41.0281 13.045C40.7058 12.4956 40.1997 12.0778 39.5992 11.8655V6.37192L44.0407 14.8832C44.0876 14.9708 44.1074 15.0703 44.0977 15.1692C44.0879 15.2681 44.049 15.3618 43.9858 15.4385Z" fill="#959595"/>
</svg>
