<svg width="54" height="54" viewBox="0 0 54 54" fill="none" xmlns="http://www.w3.org/2000/svg">
<path d="M47.0323 38.3278V34.8387C47.0309 33.6842 46.5716 32.5773 45.7552 31.7609C44.9388 30.9445 43.832 30.4853 42.6774 30.4839H35.3456C36.1518 28.9967 36.8021 27.4302 37.2861 25.8094L40.5958 23.1608C41.1103 22.7501 41.4863 22.1914 41.6733 21.5603C41.8603 20.9291 41.8492 20.2557 41.6414 19.6311C41.4337 19.0065 41.0393 18.4606 40.5116 18.0671C39.9838 17.6736 39.3481 17.4515 38.6901 17.4307L40.6306 12.0951C41.1258 10.7335 41.2854 9.27253 41.096 7.83607C40.9066 6.39962 40.3737 5.02998 39.5426 3.84321C38.7114 2.65644 37.6064 1.6875 36.3212 1.0185C35.036 0.349489 33.6085 0.000123649 32.1596 9.17688e-07H24.7651C19.2321 -0.00137904 13.8103 1.55358 9.11903 4.48723C8.97808 4.57454 8.86498 4.70027 8.79302 4.84964C8.72106 4.99902 8.69323 5.16583 8.71281 5.33047C8.73238 5.49512 8.79854 5.65075 8.90352 5.77909C9.0085 5.90743 9.14792 6.00314 9.30542 6.05497L11.4053 6.75174C11.6943 6.84816 11.9606 7.0026 12.1878 7.20561C12.415 7.40862 12.5983 7.6559 12.7265 7.93229C12.8547 8.20868 12.9251 8.50836 12.9334 8.81292C12.9416 9.11749 12.8875 9.42053 12.7745 9.70345C12.5658 10.225 12.4699 10.7849 12.4932 11.3462C12.5165 11.9075 12.6583 12.4575 12.9095 12.96L15.1548 17.4464C14.5125 17.4975 13.9004 17.7406 13.398 18.1441C12.8955 18.5475 12.526 19.0928 12.3375 19.7089C12.1489 20.3251 12.1499 20.9837 12.3405 21.5993C12.531 22.2148 12.9022 22.7589 13.4059 23.1608L16.7156 25.8094C17.1991 27.4302 17.8488 28.9967 18.6544 30.4839H11.3226C10.168 30.4853 9.06116 30.9445 8.24477 31.7609C7.42838 32.5773 6.96912 33.6842 6.96774 34.8387V38.3278C4.90637 39.1889 3.14533 40.6398 1.9057 42.4984C0.666065 44.3569 0.00308883 46.5402 0 48.7742V53.129C0 53.36 0.0917624 53.5816 0.255101 53.7449C0.418439 53.9082 0.639973 54 0.870968 54H53.129C53.36 54 53.5816 53.9082 53.7449 53.7449C53.9082 53.5816 54 53.36 54 53.129V48.7742C53.9969 46.5402 53.3339 44.3569 52.0943 42.4984C50.8547 40.6398 49.0936 39.1889 47.0323 38.3278ZM33.9677 17.4194H28.7419C28.5109 17.4194 28.2894 17.5111 28.1261 17.6745C27.9627 17.8378 27.871 18.0593 27.871 18.2903V19.1613H26.129V18.2903C26.129 18.0593 26.0373 17.8378 25.8739 17.6745C25.7106 17.5111 25.4891 17.4194 25.2581 17.4194H17.4194V16.1434L22.8559 12.5193C24.0258 11.7377 25.4015 11.3212 26.8084 11.3226C28.8212 11.3202 30.7738 10.6352 32.3469 9.37945L33.77 8.2411L35.2637 10.483C36.1237 11.7698 36.5821 13.2831 36.5806 14.8308V17.4194H33.9677ZM33.0968 19.1613V21.7742C33.0968 22.0052 33.005 22.2267 32.8417 22.3901C32.6783 22.5534 32.4568 22.6452 32.2258 22.6452H30.4839C30.2529 22.6452 30.0313 22.5534 29.868 22.3901C29.7047 22.2267 29.6129 22.0052 29.6129 21.7742V19.1613H33.0968ZM24.3871 19.1613V21.7742C24.3871 22.0052 24.2953 22.2267 24.132 22.3901C23.9687 22.5534 23.7471 22.6452 23.5161 22.6452H21.7742C21.5432 22.6452 21.3217 22.5534 21.1583 22.3901C20.995 22.2267 20.9032 22.0052 20.9032 21.7742V19.1613H24.3871ZM40.0645 20.6419C40.065 20.8641 40.0152 21.0836 39.919 21.2838C39.8228 21.4841 39.6826 21.6601 39.5088 21.7986L37.9298 23.0615C38.16 21.7736 38.2867 20.4694 38.3086 19.1613H38.5839C38.9766 19.1613 39.3532 19.3173 39.6308 19.595C39.9085 19.8726 40.0645 20.2492 40.0645 20.6419ZM14.391 10.3506C14.5922 9.84736 14.6885 9.30833 14.674 8.76656C14.6594 8.22478 14.5343 7.6917 14.3064 7.2C14.0784 6.7083 13.7524 6.26836 13.3484 5.90716C12.9443 5.54597 12.4707 5.27113 11.9566 5.09952L11.6901 5.01242C15.7135 2.86442 20.2042 1.74113 24.7651 1.74194H32.1596C33.3282 1.74216 34.4795 2.02397 35.5161 2.5635C36.5526 3.10304 37.4439 3.88442 38.1144 4.84147C38.785 5.79852 39.215 6.90305 39.3681 8.06155C39.5212 9.22004 39.393 10.3984 38.9941 11.4968L38.2372 13.5784C38.048 12.1241 37.5265 10.7329 36.713 9.51271L34.6924 6.48087C34.6253 6.38045 34.5381 6.29507 34.4363 6.23014C34.3345 6.16522 34.2203 6.12218 34.101 6.10374C33.9817 6.08573 33.86 6.09244 33.7435 6.12345C33.6269 6.15447 33.5179 6.20913 33.4234 6.28403L31.259 8.01987C29.9945 9.02819 28.4257 9.57835 26.8084 9.58065C25.0573 9.57905 23.3453 10.0974 21.8892 11.07L16.065 14.9528C16.011 14.9894 15.9613 15.0321 15.9169 15.0799L14.4676 12.1805C14.3264 11.8982 14.2466 11.5891 14.2333 11.2737C14.2201 10.9583 14.2739 10.6437 14.391 10.3506ZM14.492 21.8003C14.2516 21.6089 14.0767 21.3475 13.9916 21.0523C13.9064 20.757 13.9152 20.4426 14.0168 20.1526C14.1183 19.8626 14.3076 19.6114 14.5583 19.4337C14.8091 19.2561 15.1089 19.1609 15.4161 19.1613H15.6896C15.7115 20.47 15.8382 21.7748 16.0685 23.0632L14.492 21.8003ZM17.4333 19.1613H19.1613V21.7742C19.1613 22.4672 19.4366 23.1318 19.9266 23.6218C20.4166 24.1118 21.0812 24.3871 21.7742 24.3871H23.5161C24.2091 24.3871 24.8737 24.1118 25.3637 23.6218C25.8537 23.1318 26.129 22.4672 26.129 21.7742V20.9032H27.871V21.7742C27.871 22.4672 28.1463 23.1318 28.6363 23.6218C29.1263 24.1118 29.7909 24.3871 30.4839 24.3871H32.2258C32.9188 24.3871 33.5834 24.1118 34.0734 23.6218C34.5634 23.1318 34.8387 22.4672 34.8387 21.7742V19.1613H36.5667C36.4991 23.1534 35.3845 27.0577 33.3345 30.4839H20.6655C18.6155 27.0577 17.5009 23.1534 17.4333 19.1613ZM11.3226 32.2258H42.6774C43.3704 32.2258 44.035 32.5011 44.525 32.9911C45.015 33.4811 45.2903 34.1457 45.2903 34.8387V52.2581H8.70968V34.8387C8.70968 34.1457 8.98496 33.4811 9.47498 32.9911C9.96499 32.5011 10.6296 32.2258 11.3226 32.2258ZM1.74194 48.7742C1.7443 47.0094 2.23337 45.2794 3.15535 43.7746C4.07733 42.2698 5.3965 41.0484 6.96774 40.2448V52.2581H1.74194V48.7742ZM52.2581 52.2581H47.0323V40.2448C48.6034 41.0485 49.9226 42.2699 50.8445 43.7747C51.7665 45.2795 52.2556 47.0094 52.2581 48.7742V52.2581Z" fill="#1BAAAE"/>
<path d="M27.0004 49.6452C27.6894 49.6452 28.363 49.4409 28.9359 49.0581C29.5088 48.6753 29.9554 48.1312 30.2191 47.4946C30.4827 46.858 30.5517 46.1575 30.4173 45.4817C30.2829 44.8059 29.9511 44.1851 29.4639 43.6979C28.9766 43.2107 28.3559 42.8789 27.6801 42.7444C27.0042 42.61 26.3038 42.679 25.6672 42.9427C25.0306 43.2064 24.4865 43.6529 24.1036 44.2258C23.7208 44.7988 23.5165 45.4723 23.5165 46.1614C23.5165 47.0854 23.8836 47.9715 24.5369 48.6248C25.1903 49.2782 26.0764 49.6452 27.0004 49.6452ZM27.0004 44.4194C27.3449 44.4194 27.6817 44.5216 27.9682 44.713C28.2546 44.9044 28.4779 45.1765 28.6097 45.4948C28.7416 45.8131 28.7761 46.1633 28.7088 46.5012C28.6416 46.8391 28.4757 47.1495 28.2321 47.3931C27.9885 47.6367 27.6781 47.8026 27.3402 47.8698C27.0023 47.9371 26.6521 47.9026 26.3338 47.7707C26.0155 47.6389 25.7434 47.4156 25.552 47.1291C25.3606 46.8427 25.2584 46.5059 25.2584 46.1614C25.2584 45.6994 25.442 45.2563 25.7686 44.9296C26.0953 44.603 26.5384 44.4194 27.0004 44.4194ZM21.1588 41.5513L22.3903 40.3198L19.5223 37.4517L22.3903 34.5836L21.1588 33.3521L17.6749 36.8359C17.5116 36.9993 17.4199 37.2207 17.4199 37.4517C17.4199 37.6826 17.5116 37.9041 17.6749 38.0675L21.1588 41.5513ZM32.842 41.5513L36.3258 38.0675C36.4891 37.9041 36.5808 37.6826 36.5808 37.4517C36.5808 37.2207 36.4891 36.9993 36.3258 36.8359L32.842 33.3521L31.6104 34.5836L34.4785 37.4517L31.6104 40.3198L32.842 41.5513ZM23.6907 40.4121L28.9165 33.4452L30.3101 34.4904L25.0834 41.4581L23.6907 40.4121Z" fill="#1BAAAE95"/>
</svg>
