<svg width="31" height="30" viewBox="0 0 31 30" fill="none" xmlns="http://www.w3.org/2000/svg"><path d="M30.5586 15C30.5586 23.2843 23.8429 30 15.5586 30C7.27432 30 0.558594 23.2843 0.558594 15C0.558594 6.71573 7.27432 0 15.5586 0C23.8429 0 30.5586 6.71573 30.5586 15ZM4.64759 15C4.64759 21.026 9.53261 25.911 15.5586 25.911C21.5846 25.911 26.4696 21.026 26.4696 15C26.4696 8.97402 21.5846 4.089 15.5586 4.089C9.53261 4.089 4.64759 8.97402 4.64759 15Z" fill="#1D5991" fill-opacity="0.2"></path><path d="M12.6225 2.38158C12.3666 1.28181 13.0516 0.16792 14.1759 0.063839C16.7453 -0.174006 19.345 0.254138 21.7186 1.32324C24.7167 2.67359 27.1881 4.97166 28.7524 7.86388C30.3167 10.7561 30.8873 14.0822 30.3765 17.3304C29.8656 20.5787 28.3016 23.569 25.925 25.8415C23.5484 28.1139 20.491 29.5425 17.2232 29.9074C13.9553 30.2722 10.6581 29.5533 7.83884 27.861C5.01957 26.1687 2.83446 23.597 1.61972 20.5415C0.657974 18.1223 0.346671 15.506 0.699327 12.9499C0.85365 11.8314 1.99709 11.197 3.0843 11.5019C4.1715 11.8067 4.78493 12.9376 4.68793 14.0626C4.54296 15.7438 4.7892 17.4455 5.41945 19.0309C6.30306 21.2535 7.89251 23.1241 9.94324 24.3551C11.994 25.586 14.3924 26.109 16.7694 25.8436C19.1464 25.5782 21.3704 24.5391 23.0991 22.8861C24.8278 21.2331 25.9655 19.0579 26.3371 16.6952C26.7087 14.3324 26.2936 11.913 25.1557 9.80919C24.0179 7.70539 22.2202 6.03377 20.0394 5.05152C18.4839 4.35092 16.7949 4.02872 15.1089 4.09826C13.9807 4.14479 12.8784 3.48134 12.6225 2.38158Z" fill="url(#paint0_angular_4001_819)"></path><path d="M26.7337 8.44542C27.7076 7.87415 28.9748 8.19697 29.4084 9.23953C30.2075 11.1608 30.601 13.2345 30.555 15.3296C30.4939 18.1088 29.6617 20.8164 28.1513 23.1501C26.6408 25.4839 24.5116 27.352 22.0012 28.546C19.4908 29.7399 16.698 30.2128 13.9344 29.9118C11.1709 29.6108 8.54537 28.5478 6.35086 26.8414C4.15636 25.1349 2.47922 22.8522 1.50662 20.2481C0.534025 17.6439 0.304232 14.8206 0.842889 12.0934C1.24896 10.0375 2.07972 8.09714 3.27366 6.393C3.92156 5.46823 5.22847 5.42577 6.05663 6.19332C6.88478 6.96087 6.91436 8.24705 6.31453 9.20369C5.61026 10.3269 5.11349 11.574 4.85439 12.8858C4.46257 14.8695 4.62972 16.9232 5.33719 18.8174C6.04466 20.7117 7.26461 22.3721 8.86089 23.6134C10.4572 24.8547 12.367 25.6279 14.3772 25.8469C16.3874 26.0658 18.4189 25.7218 20.2449 24.8533C22.071 23.9848 23.6198 22.626 24.7185 20.9284C25.8172 19.2308 26.4225 17.2614 26.467 15.2398C26.4963 13.903 26.2797 12.5782 25.8337 11.3297C25.4539 10.2663 25.7597 9.01669 26.7337 8.44542Z" fill="url(#paint1_angular_4001_819)"></path><defs><radialGradient id="paint0_angular_4001_819" cx="0" cy="0" r="1" gradientUnits="userSpaceOnUse" gradientTransform="translate(15.5586 15) rotate(-114.59) scale(25.6123)"><stop stop-color="#1D5991" stop-opacity="0"></stop><stop offset="1" stop-color="#1D5991"></stop></radialGradient><radialGradient id="paint1_angular_4001_819" cx="0" cy="0" r="1" gradientUnits="userSpaceOnUse" gradientTransform="translate(15.5586 15) rotate(-89.076) scale(24.4769 26.0874)"><stop stop-color="#1D5991"></stop><stop offset="1" stop-color="#1D5991" stop-opacity="0"></stop></radialGradient></defs></svg>