<svg width="624" height="185" viewBox="0 0 624 185" fill="none" xmlns="http://www.w3.org/2000/svg">
<path d="M174.9 41C178.4 36.6 181.4 32.3 185 28.5C205.5 7.19995 229.1 -1.70006 254.6 3.79994C279.5 9.09994 293.3 25.5 295.9 51.1C296.3 54.7 297.5 56.2 301.1 57C331.6 63.7 347.7 92.7999 338.9 124.8C330.1 156.8 299.7 181.1 266.9 181.7C247 182.1 227.3 181.8 207.5 181.8C166.5 181.8 125.5 181.9 84.5 181.8C57.6 181.7 39.5 162.2 41.7 136C43.9 110 65.3 87.0999 92.5 81.7999C94.8 81.2999 96.5 80.9 97.6 78C110.1 45.6 143.9 28.7999 172.9 40.2999C173.6 40.4999 174.1 40.7 174.9 41Z" fill="#1D5991"/>
<path d="M118.2 88.8998L109.6 137.6C108.4 144.4 105.5 149.6 101 153.3C96.4001 157 90.9001 158.9 84.3001 158.9C77.7001 158.9 72.7001 157 69.3001 153.1C65.9001 149.3 64.8001 143.9 66.0001 137H79.9001C79.4001 140 79.7001 142.3 80.8001 144C81.9001 145.7 83.7001 146.5 86.3001 146.5C88.8001 146.5 90.9001 145.7 92.5001 144.1C94.1001 142.5 95.2001 140.3 95.6001 137.5L104.2 88.7998H118.2V88.8998Z" fill="white"/>
<path d="M134.2 154.3C129.3 151.3 125.7 147 123.5 141.6C121.3 136.2 120.8 130.1 122 123.3C123.2 116.5 125.9 110.5 130 105.1C134.1 99.6998 139.2 95.4998 145.1 92.3998C151.1 89.3998 157.3 87.7998 163.8 87.7998C170.4 87.7998 176.1 89.2998 180.9 92.3998C185.8 95.3998 189.3 99.6998 191.5 105.1C193.7 110.5 194.2 116.6 193 123.3C191.8 130.1 189.1 136.2 185.1 141.6C181 147 176 151.2 170 154.3C164 157.3 157.8 158.9 151.3 158.9C144.8 158.9 139.1 157.4 134.2 154.3ZM165 143.6C168.5 141.7 171.5 139 173.9 135.5C176.3 132 177.9 127.9 178.7 123.3C179.5 118.7 179.3 114.6 178.2 111.1C177 107.6 175 105 172.2 103.1C169.3 101.2 165.8 100.3 161.7 100.3C157.5 100.3 153.7 101.2 150.1 103.1C146.6 105 143.6 107.6 141.2 111.1C138.8 114.6 137.2 118.6 136.4 123.3C135.6 127.9 135.8 132 136.9 135.5C138.1 139 140.1 141.7 143 143.6C145.9 145.5 149.4 146.4 153.6 146.4C157.6 146.5 161.5 145.5 165 143.6Z" fill="white"/>
<path d="M261.6 88.8999L230.2 134.1L225.9 158.2H212L216.3 134.1L200.7 88.8999H216.4L225.7 120.6L246.1 88.8999H261.6Z" fill="white"/>
<path d="M321.7 88.8999L290.3 134.1L286 158.2H272.1L276.4 134.1L260.8 88.8999H276.5L285.8 120.6L306.2 88.8999H321.7Z" fill="white"/>
<path d="M339.7 156.6C338.1 155 337.3 153.1 337.3 150.8C337.3 148.5 338.1 146.5 339.7 145C341.3 143.4 343.4 142.7 345.9 142.7C348.3 142.7 350.4 143.5 352 145C353.6 146.6 354.4 148.5 354.4 150.8C354.4 153.1 353.6 155.1 352 156.6C350.4 158.2 348.4 158.9 345.9 158.9C343.4 158.9 341.3 158.1 339.7 156.6Z" fill="#1BAAAE"/>
<path d="M431.2 88.8999L419 158.2H405L410.2 128.7H380.5L375.3 158.2H361.4L373.6 88.8999H387.5L382.5 117.4H412.2L417.2 88.8999H431.2Z" fill="#1BAAAE"/>
<path d="M444.6 154.3C439.7 151.3 436.1 147 433.9 141.6C431.7 136.2 431.2 130.1 432.4 123.3C433.6 116.5 436.3 110.5 440.4 105.1C444.5 99.6998 449.6 95.4998 455.5 92.3998C461.5 89.3998 467.7 87.7998 474.2 87.7998C480.8 87.7998 486.5 89.2998 491.3 92.3998C496.2 95.3998 499.7 99.6998 501.9 105.1C504.1 110.5 504.6 116.6 503.4 123.3C502.2 130.1 499.5 136.2 495.5 141.6C491.4 147 486.4 151.2 480.4 154.3C474.4 157.3 468.2 158.9 461.7 158.9C455.2 158.9 449.5 157.4 444.6 154.3ZM475.4 143.6C478.9 141.7 481.9 139 484.3 135.5C486.7 132 488.3 127.9 489.1 123.3C489.9 118.7 489.7 114.6 488.6 111.1C487.4 107.6 485.4 105 482.6 103.1C479.7 101.2 476.2 100.3 472.1 100.3C467.9 100.3 464.1 101.2 460.5 103.1C457 105 454 107.6 451.6 111.1C449.2 114.6 447.6 118.6 446.8 123.3C446 127.9 446.2 132 447.3 135.5C448.5 139 450.5 141.7 453.4 143.6C456.3 145.5 459.8 146.4 464 146.4C468.1 146.5 471.9 145.5 475.4 143.6Z" fill="#1BAAAE"/>
<path d="M515.8 156.4C512.2 154.7 509.6 152.4 507.9 149.2C506.2 146.1 505.7 142.4 506.4 138.2H521.3C521 141 521.6 143.3 523.1 145C524.6 146.7 527 147.5 530.2 147.5C533.4 147.5 536.1 146.7 538.3 145.2C540.4 143.6 541.7 141.6 542.2 139.1C542.6 137 542.2 135.4 541.2 134C540.2 132.7 538.8 131.6 537 130.9C535.2 130.1 532.8 129.3 529.6 128.4C525.3 127.1 521.9 125.8 519.3 124.5C516.7 123.2 514.6 121.3 513.1 118.6C511.5 116 511.1 112.5 511.9 108.1C512.6 104 514.3 100.4 516.9 97.3997C519.5 94.3997 522.8 91.9997 526.8 90.3997C530.8 88.7997 535.2 87.9998 539.9 87.9998C547.1 87.9998 552.6 89.6998 556.4 93.1998C560.3 96.6998 561.9 101.5 561.2 107.8H545.9C546.2 105.4 545.5 103.4 543.9 101.9C542.3 100.3 539.9 99.5998 536.8 99.5998C534.1 99.5998 531.8 100.3 529.9 101.7C528 103.1 526.9 105.1 526.4 107.8C526.1 109.7 526.4 111.2 527.4 112.4C528.4 113.6 529.8 114.6 531.4 115.4C533.1 116.2 535.5 117 538.6 118C542.9 119.3 546.3 120.6 548.9 122C551.5 123.3 553.6 125.3 555.2 128C556.8 130.6 557.2 134.1 556.4 138.4C555.7 142.1 554.2 145.6 551.7 148.7C549.2 151.9 546 154.4 541.9 156.3C537.9 158.2 533.3 159.1 528.2 159.1C523.6 158.9 519.4 158.1 515.8 156.4Z" fill="#1BAAAE"/>
<path d="M621.6 88.8999L619.6 100.1H601.1L590.9 158.2H577L587.2 100.1H568.7L570.7 88.8999H621.6Z" fill="#1BAAAE"/>
<path d="M157.5 20.7998L9.1001 15.7998L157.5 10.7998C164.3 10.7998 164.4 20.6998 157.5 20.7998Z" fill="#1D5991"/>
<path d="M103.6 43.4998L2.90002 38.4998L103.6 33.4998C110.5 33.3998 110.5 43.5998 103.6 43.4998Z" fill="#1D5991"/>
<path d="M75.1001 68.1999L24.8 63.1999L75.1001 58.1999C82.4001 57.7999 82.4001 68.4999 75.1001 68.1999Z" fill="#1D5991"/>
</svg>
