<svg width="54" height="54" viewBox="0 0 54 54" fill="none" xmlns="http://www.w3.org/2000/svg">
<path d="M38.7059 46.7989H45.0069V48.5992H38.7059V46.7989ZM30.6047 23.1703C31.4733 23.1703 32.1799 22.4637 32.1799 21.595C32.1799 20.7264 31.4733 20.0198 30.6047 20.0198C29.736 20.0198 29.0294 20.7264 29.0294 21.595C29.0294 22.4637 29.736 23.1703 30.6047 23.1703ZM30.6047 21.37C30.6643 21.37 30.7216 21.3937 30.7638 21.4359C30.806 21.4781 30.8297 21.5353 30.8297 21.595C30.8297 21.8426 30.3796 21.8426 30.3796 21.595C30.3796 21.5353 30.4033 21.4781 30.4455 21.4359C30.4877 21.3937 30.545 21.37 30.6047 21.37ZM39.606 23.1703C40.4747 23.1703 41.1813 22.4637 41.1813 21.595C41.1813 20.7264 40.4747 20.0198 39.606 20.0198C38.7374 20.0198 38.0308 20.7264 38.0308 21.595C38.0308 22.4637 38.7374 23.1703 39.606 23.1703ZM39.606 21.37C39.6657 21.37 39.723 21.3937 39.7652 21.4359C39.8074 21.4781 39.8311 21.5353 39.8311 21.595C39.8311 21.8426 39.381 21.8426 39.381 21.595C39.381 21.5353 39.4047 21.4781 39.4469 21.4359C39.4891 21.3937 39.5464 21.37 39.606 21.37ZM35.1054 29.4712C36.0002 29.47 36.8581 29.114 37.4909 28.4812C38.1237 27.8485 38.4797 26.9906 38.4809 26.0957H37.1307C37.1307 27.2119 36.2224 28.121 35.1054 28.121C33.9883 28.121 33.08 27.2119 33.08 26.0957H31.7298C31.731 26.9906 32.087 27.8485 32.7198 28.4812C33.3526 29.114 34.2105 29.47 35.1054 29.4712Z" fill="#959595"/>
<path d="M54.0083 29.6963C54.0083 27.7105 52.3935 26.0957 50.4078 26.0957V15.7009C50.4078 7.2864 44.0105 0.394036 35.8453 0.0087764C35.3524 -0.00292547 34.8593 -0.00292547 34.3664 0.0087764C26.2003 0.394036 19.8031 7.2864 19.8031 15.7009V26.0957C17.8173 26.0957 16.2025 27.7105 16.2025 29.6963C16.2034 30.4047 16.4128 31.0972 16.8047 31.6874C17.1965 32.2776 17.7535 32.7393 18.406 33.0151C17.7148 33.6055 17.1599 34.3389 16.7795 35.1645C16.3991 35.9901 16.2022 36.8884 16.2025 37.7975C16.2022 38.8507 16.4659 39.8871 16.9694 40.8121C17.0459 41.1748 17.2746 42.0651 17.811 43.1101L16.9469 47.1751L13.5453 40.3719L14.1817 37.1899C14.278 36.7048 14.2126 36.2014 13.9953 35.757C13.7781 35.3127 13.4211 34.9518 12.9791 34.7298C12.5556 34.5178 12.0761 34.4446 11.6087 34.5205C11.1412 34.5965 10.7096 34.8177 10.375 35.1529L9.68549 35.8424L3.63476 33.4228C2.81833 33.0952 1.89389 33.1951 1.16478 33.6893C0.435667 34.1834 0 35.0017 0 35.882C0.000534801 36.349 0.124227 36.8076 0.358599 37.2116C0.59297 37.6155 0.92973 37.9505 1.33491 38.1828L6.43599 41.0974L9.93573 53.3465C10.0464 53.7336 10.4002 54 10.8017 54H53.1082C53.2418 54.0002 53.3738 53.9706 53.4946 53.9134C53.6154 53.8562 53.7219 53.7728 53.8064 53.6693C53.8909 53.5657 53.9512 53.4447 53.983 53.3149C54.0149 53.1851 54.0173 53.0498 53.9903 52.9189L52.0316 43.418C52.5254 42.6428 52.9164 41.8068 53.1946 40.9309L53.2477 40.7581C53.3197 40.5204 53.4061 40.2864 53.4934 40.0514C53.7347 39.397 54.0083 38.6562 54.0083 37.7975C54.0083 35.8865 53.1532 34.1717 51.8048 33.0151C52.4574 32.7393 53.0143 32.2776 53.4062 31.6874C53.798 31.0972 54.0075 30.4047 54.0083 29.6963ZM11.4804 52.1997L8.06614 40.2513C8.00134 40.0255 7.85123 39.8337 7.64758 39.7166L2.22784 36.6201C2.09808 36.5454 1.99027 36.4379 1.91522 36.3083C1.84017 36.1788 1.80053 36.0317 1.80028 35.882C1.80028 35.5958 1.9362 35.3383 2.17384 35.1781C2.41147 35.0179 2.70042 34.9855 2.96596 35.0926L9.56668 37.7336C9.90063 37.8659 10.2832 37.7894 10.5379 37.5338L11.6469 36.4248C11.7164 36.3566 11.8058 36.3123 11.9022 36.2985C11.9986 36.2846 12.0969 36.3019 12.1828 36.3478C12.2687 36.3937 12.3376 36.4659 12.3797 36.5537C12.4217 36.6415 12.4346 36.7405 12.4165 36.8362L11.7198 40.3215C11.6802 40.5177 11.7081 40.7212 11.7972 40.9012L17.4465 52.1997H11.4804ZM18.2386 49.7576L20.1046 40.9768C20.1109 40.9462 20.1163 40.9156 20.1199 40.8832C20.1577 40.5213 20.4079 40.2198 20.7014 40.1289L26.3642 38.8093L27.7351 43.4531C27.8018 43.6796 27.955 43.8708 28.1614 43.9855C28.3678 44.1001 28.6111 44.1291 28.8386 44.0661L34.2053 42.5808V52.1997H24.3037V48.5992H22.5035V52.1997H19.4592L18.2386 49.7576ZM29.755 38.0198C29.7964 38.2071 29.8971 38.376 30.0421 38.5014L33.1665 41.0011L29.2104 42.0957L28.1203 38.4006L29.755 38.0198ZM26.104 17.9944H32.4914C34.974 17.9944 37.128 16.3121 37.7239 13.9312L38.7015 10.4981L39.8518 14.5847C40.0902 15.5398 40.6359 16.39 41.4049 17.0045C42.1739 17.6189 43.1236 17.9636 44.1077 17.9854V22.4951C44.1077 27.4585 40.0697 31.4965 35.1063 31.4965C30.1429 31.4965 26.1049 27.4585 26.1049 22.4951L26.104 17.9944ZM40.1687 38.5005C40.3115 38.3776 40.4115 38.2124 40.454 38.0288L42.0194 38.4087L40.6494 42.0957L37.0155 41.0218L40.1687 38.5005ZM35.1054 33.2968C36.3692 33.2968 37.5781 33.0673 38.706 32.6667V37.3654L35.1054 40.2459L31.5049 37.3654V32.6667C32.6327 33.0673 33.8416 33.2968 35.1054 33.2968ZM47.7074 52.1997V48.5992H45.9071V52.1997H36.0056V42.6024L40.9455 44.0616C41.1642 44.1265 41.3994 44.1059 41.6034 44.004C41.8075 43.902 41.9652 43.7263 42.0446 43.5125L43.7809 38.8381L49.0423 40.1163C49.3915 40.2207 49.6418 40.5222 49.6931 40.9714L52.0037 52.1997H47.7074ZM50.4078 31.4965H47.7074C47.4686 31.4965 47.2397 31.5914 47.0709 31.7602C46.9021 31.929 46.8072 32.1579 46.8072 32.3967C46.8072 32.6354 46.9021 32.8644 47.0709 33.0332C47.2397 33.202 47.4686 33.2968 47.7074 33.2968C50.189 33.2968 52.208 35.3158 52.208 37.7975C52.208 38.3349 52.0118 38.8651 51.8048 39.4268C51.7049 39.6968 51.6059 39.9668 51.523 40.2405L51.4771 40.3899C51.4654 40.4268 51.4456 40.4619 51.4339 40.4979C51.2539 39.5024 50.5383 38.685 49.5139 38.3781L40.5062 36.1899V31.8359C43.7296 29.9645 45.9071 26.4837 45.9071 22.496V17.9953H46.8072V16.1951H44.2175C43.6109 16.1942 43.0222 15.9896 42.5458 15.614C42.0695 15.2383 41.7332 14.7136 41.5909 14.1239L39.5719 6.94975C39.519 6.76095 39.4058 6.5946 39.2497 6.476C39.0935 6.35739 38.9029 6.29301 38.7069 6.29264C38.3045 6.29264 37.9507 6.55999 37.84 6.94705L35.9839 13.4677C35.7899 14.2469 35.3406 14.9387 34.7076 15.4329C34.0746 15.927 33.2944 16.195 32.4914 16.1942H23.4036V17.9944H24.3037V22.4951C24.3037 26.4828 26.4812 29.9645 29.7046 31.835V36.1827L20.2378 38.3907C19.8605 38.5041 19.5127 38.6988 19.2186 38.9609C18.9246 39.2231 18.6915 39.5465 18.5357 39.9083C18.1878 39.259 18.0048 38.5341 18.0028 37.7975C18.0028 35.3158 20.0218 33.2968 22.5035 33.2968C22.7422 33.2968 22.9712 33.202 23.14 33.0332C23.3088 32.8644 23.4036 32.6354 23.4036 32.3967C23.4036 32.1579 23.3088 31.929 23.14 31.7602C22.9712 31.5914 22.7422 31.4965 22.5035 31.4965H19.8031C18.8102 31.4965 18.0028 30.6891 18.0028 29.6963C18.0028 28.7034 18.8102 27.896 19.8031 27.896H20.7032C20.9419 27.896 21.1709 27.8011 21.3397 27.6323C21.5085 27.4635 21.6033 27.2346 21.6033 26.9958V15.7009C21.6033 8.24955 27.2472 2.14661 34.4528 1.80725C34.8881 1.79645 35.3236 1.79645 35.7589 1.80725C42.9636 2.14751 48.6075 8.24955 48.6075 15.7009V26.9958C48.6075 27.2346 48.7023 27.4635 48.8711 27.6323C49.0399 27.8011 49.2689 27.896 49.5076 27.896H50.4078C51.4006 27.896 52.208 28.7034 52.208 29.6963C52.208 30.6891 51.4006 31.4965 50.4078 31.4965Z" fill="#959595"/>
<path d="M13.5021 17.9944H15.3024V20.6948H13.5021V17.9944ZM10.8017 16.1941H13.5021V17.9944H10.8017V16.1941ZM13.5021 13.4937H15.3024V16.1941H13.5021V13.4937ZM15.3024 16.1941H18.0028V17.9944H15.3024V16.1941ZM2.70042 8.993H4.50069V11.6934H2.70042V8.993ZM0 7.19273H2.70042V8.993H0V7.19273ZM2.70042 4.49231H4.50069V7.19273H2.70042V4.49231ZM4.50069 7.19273H7.20111V8.993H4.50069V7.19273ZM11.7018 7.19273H13.5021V8.993H11.7018V7.19273ZM1.80028 17.0943H3.60055V18.8945H1.80028V17.0943ZM7.20111 23.3952H9.00139V25.1955H7.20111V23.3952Z" fill="#959595"/>
</svg>
