<svg width="217" height="104" viewBox="0 0 217 104" fill="none" xmlns="http://www.w3.org/2000/svg"><path d="M65.1538 25.5986C63.1366 26.3328 60.906 25.2927 60.1718 23.2755L56.1835 12.3178L23.3104 24.2826C21.2932 25.0168 20.2531 27.2474 20.9873 29.2647L24.0893 37.7873L54.5273 26.7087C55.8722 26.2192 57.3592 26.9127 57.8486 28.2575L64.0526 45.3027C64.542 46.6475 63.8487 48.1345 62.5038 48.624L32.0658 59.7026L44.0306 92.5756C44.7648 94.5929 46.9954 95.633 49.0126 94.8988L92.8433 78.9457C94.8606 78.2115 95.9007 75.9809 95.1665 73.9637L76.1114 21.6104L65.1538 25.5986ZM60.1821 77.4494C60.3363 77.5213 60.4749 77.6228 60.5898 77.7483C60.7048 77.8737 60.7939 78.0205 60.8521 78.1804C60.9103 78.3403 60.9364 78.5101 60.929 78.6801C60.9215 78.85 60.8807 79.0169 60.8087 79.1711C60.6575 79.4954 60.3893 79.7275 60.0777 79.8409C59.7662 79.9543 59.4113 79.9488 59.0871 79.7975L49.1231 75.1512C48.9689 75.0793 48.8303 74.9778 48.7154 74.8524C48.6004 74.7269 48.5113 74.5801 48.4531 74.4202C48.3949 74.2603 48.3688 74.0905 48.3762 73.9205C48.3836 73.7506 48.4245 73.5837 48.4964 73.4295L53.1428 63.4655C53.4452 62.8168 54.2158 62.5364 54.8644 62.8388C55.5131 63.1413 55.7935 63.9119 55.4911 64.5605L51.3923 73.3503L60.1821 77.4494ZM65.6843 57.6029L65.4693 79.7421C65.4621 80.0833 65.3206 80.4079 65.0755 80.6455C64.8304 80.883 64.5015 81.0143 64.1602 81.0109C63.8189 81.0074 63.4928 80.8695 63.2525 80.6271C63.0123 80.3847 62.8773 80.0573 62.877 79.7159L63.0919 57.5768C63.0997 56.8616 63.686 56.29 64.4005 56.294C65.1164 56.3016 65.691 56.8868 65.6843 57.6029ZM80.0652 63.8892L75.4189 73.8533C75.2677 74.1777 74.9995 74.4098 74.688 74.5232C74.3764 74.6366 74.0216 74.6311 73.6974 74.4798C73.5432 74.408 73.4046 74.3064 73.2896 74.181C73.1747 74.0555 73.0856 73.9087 73.0274 73.7488C72.9692 73.5889 72.9431 73.4192 72.9505 73.2492C72.9579 73.0792 72.9988 72.9123 73.0707 72.7582L77.1695 63.9685L68.3797 59.8697C67.7311 59.5673 67.4506 58.7967 67.7531 58.1481C68.0556 57.4994 68.8261 57.2189 69.4748 57.5214L79.4388 62.1677C79.593 62.2396 79.7315 62.3412 79.8465 62.4666C79.9614 62.592 80.0505 62.7388 80.1086 62.8987C80.1668 63.0586 80.1929 63.2283 80.1855 63.3983C80.178 63.5682 80.1372 63.735 80.0652 63.8892Z" fill="#D2DCF0"></path><path d="M65.1539 25.5984L76.1115 21.6102L56.1836 12.3176L60.1719 23.2753C60.9061 25.2925 63.1366 26.3326 65.1539 25.5984Z" fill="#B5C7EB"></path><path d="M64.0527 45.3029L57.8487 28.2576C57.3592 26.9129 55.8723 26.2194 54.5274 26.7089L7.04409 43.9914C5.69921 44.4809 5.00591 45.968 5.49535 47.3127L11.6993 64.358C12.1888 65.7027 13.6757 66.3962 15.0206 65.9067L62.5039 48.6242C63.8488 48.1347 64.5421 46.6476 64.0527 45.3029ZM24.9801 55.3877C25.0384 55.5476 25.0645 55.7174 25.0571 55.8874C25.0497 56.0574 25.0089 56.2243 24.937 56.3785C24.8651 56.5327 24.7635 56.6712 24.638 56.7862C24.5125 56.9011 24.3656 56.9902 24.2057 57.0484C24.0458 57.1066 23.876 57.1328 23.706 57.1254C23.536 57.118 23.3691 57.0772 23.2149 57.0053C23.0607 56.9333 22.9221 56.8318 22.8072 56.7063C22.6922 56.5808 22.6031 56.4339 22.545 56.274L21.6587 53.839L15.5712 56.0546L16.4575 58.4897C16.7024 59.1626 16.3554 59.9057 15.6831 60.1504C15.0107 60.3951 14.2673 60.049 14.0223 59.376L10.4772 49.6358C10.2323 48.9628 10.5792 48.2198 11.2516 47.975C11.924 47.7303 12.6674 48.0764 12.9123 48.7494L14.6849 53.6195L20.7725 51.4038L19 46.5337C18.9417 46.3738 18.9156 46.2041 18.923 46.034C18.9304 45.864 18.9712 45.6972 19.0431 45.5429C19.115 45.3887 19.2166 45.2502 19.3421 45.1352C19.4676 45.0203 19.6145 44.9312 19.7744 44.873C19.9343 44.8148 20.1041 44.7886 20.2741 44.796C20.4441 44.8034 20.611 44.8442 20.7652 44.9161C20.9194 44.9881 21.0579 45.0897 21.1729 45.2151C21.2878 45.3406 21.3769 45.4875 21.4351 45.6474L24.9801 55.3877ZM31.6183 43.3199L29.1833 44.2062L32.2853 52.7288C32.3435 52.8887 32.3697 53.0585 32.3623 53.2285C32.3549 53.3985 32.3141 53.5654 32.2422 53.7196C32.1702 53.8738 32.0686 54.0124 31.9432 54.1273C31.8177 54.2423 31.6708 54.3314 31.5109 54.3895C31.351 54.4478 31.1812 54.4739 31.0112 54.4665C30.8412 54.4591 30.6743 54.4183 30.5201 54.3464C30.3659 54.2745 30.2273 54.1729 30.1124 54.0474C29.9974 53.9219 29.9083 53.775 29.8502 53.6151L26.7482 45.0925L24.3132 45.9788C24.1533 46.037 23.9835 46.0632 23.8135 46.0558C23.6435 46.0484 23.4766 46.0075 23.3223 45.9356C23.1681 45.8637 23.0296 45.7621 22.9146 45.6366C22.7997 45.5112 22.7106 45.3643 22.6524 45.2044C22.5942 45.0445 22.568 44.8747 22.5754 44.7047C22.5828 44.5347 22.6236 44.3678 22.6956 44.2135C22.7675 44.0593 22.8691 43.9208 22.9945 43.8058C23.12 43.6909 23.2669 43.6018 23.4268 43.5436L30.732 40.8847C30.8919 40.8265 31.0617 40.8003 31.2317 40.8077C31.4017 40.8152 31.5686 40.856 31.7228 40.9279C31.877 40.9998 32.0156 41.1014 32.1305 41.2269C32.2455 41.3524 32.3346 41.4992 32.3928 41.6592C32.451 41.8191 32.4772 41.9889 32.4698 42.1589C32.4623 42.3289 32.4215 42.4957 32.3496 42.65C32.2777 42.8042 32.1761 42.9427 32.0506 43.0577C31.9251 43.1726 31.7783 43.2617 31.6183 43.3199ZM48.113 46.968C48.3579 47.6409 48.0109 48.384 47.3386 48.6287C46.6662 48.8735 45.9229 48.5273 45.678 47.8543L43.7327 42.5098L43.1854 45.3346C43.1427 45.5542 43.044 45.759 42.8987 45.9292C42.7535 46.0993 42.5667 46.229 42.3565 46.3056L41.139 46.7487C40.7114 46.9044 40.2332 46.8238 39.8799 46.5377L37.6448 44.7256L39.5901 50.0701C39.835 50.743 39.488 51.4861 38.8157 51.7308C38.1433 51.9755 37.3999 51.6295 37.1549 50.9564L33.6098 41.2162C33.5129 40.9499 33.506 40.6592 33.59 40.3886C33.674 40.118 33.8443 39.8824 34.075 39.7178C34.5523 39.3812 35.1913 39.4004 35.6432 39.7665L40.8124 43.9577L42.0781 37.4244C42.188 36.8512 42.6658 36.4269 43.2482 36.3791C43.5307 36.3569 43.8126 36.4279 44.0509 36.5812C44.2892 36.7345 44.4708 36.9616 44.5677 37.2278L48.1128 46.968L48.113 46.968ZM58.2964 44.6404L52.2087 46.8561C52.0488 46.9144 51.879 46.9405 51.709 46.9331C51.539 46.9257 51.3722 46.8849 51.2179 46.813C51.0637 46.7411 50.9252 46.6395 50.8102 46.514C50.6953 46.3885 50.6062 46.2416 50.548 46.0817L47.0029 36.3415C46.7579 35.6686 47.1049 34.9255 47.7773 34.6808C48.4496 34.4361 49.193 34.7821 49.438 35.4552L52.54 43.9778L57.41 42.2053C58.0824 41.9606 58.8258 42.3066 59.0708 42.9797C59.3157 43.6528 58.9687 44.3957 58.2964 44.6404Z" fill="#1BAAAE"></path><path d="M19.7743 44.8729C19.6144 44.931 19.4675 45.0201 19.342 45.1351C19.2165 45.25 19.1149 45.3886 19.043 45.5428C18.9711 45.697 18.9303 45.8639 18.9229 46.0339C18.9155 46.2039 18.9416 46.3737 18.9999 46.5336L20.7724 51.4037L14.6849 53.6193L12.9124 48.7493C12.6675 48.0764 11.924 47.7301 11.2517 47.9749C10.5793 48.2196 10.2323 48.9625 10.4772 49.6356L14.0224 59.3758C14.2673 60.0487 15.0108 60.3949 15.6831 60.1502C16.3555 59.9055 16.7025 59.1625 16.4575 58.4895L15.5713 56.0545L21.6589 53.8388L22.5452 56.2738C22.6033 56.4337 22.6924 56.5806 22.8074 56.7061C22.9223 56.8315 23.0609 56.9331 23.2151 57.005C23.3693 57.077 23.5362 57.1178 23.7062 57.1252C23.8762 57.1326 24.046 57.1064 24.2059 57.0482C24.3658 56.99 24.5127 56.9009 24.6382 56.786C24.7637 56.671 24.8652 56.5325 24.9372 56.3783C25.0091 56.224 25.0499 56.0572 25.0573 55.8871C25.0647 55.7171 25.0385 55.5473 24.9803 55.3875L21.4352 45.6472C21.377 45.4873 21.2879 45.3404 21.1729 45.215C21.0579 45.0895 20.9194 44.9879 20.7651 44.916C20.6109 44.8441 20.444 44.8033 20.274 44.7959C20.104 44.7885 19.9342 44.8146 19.7743 44.8729ZM43.2485 36.3788C42.6661 36.4265 42.1884 36.8508 42.0785 37.4241L40.8127 43.9574L35.6436 39.7662C35.1919 39.4002 34.5526 39.3809 34.0753 39.7176C33.8447 39.8821 33.6743 40.1178 33.5903 40.3884C33.5063 40.659 33.5132 40.9497 33.6101 41.2159L37.1553 50.9561C37.4002 51.6291 38.1436 51.9753 38.816 51.7305C39.4884 51.4858 39.8354 50.7429 39.5904 50.0698L37.6452 44.7253L39.8803 46.5374C40.0541 46.6782 40.2614 46.7716 40.482 46.8086C40.7026 46.8456 40.9291 46.8249 41.1393 46.7485L42.3569 46.3053C42.7844 46.1497 43.099 45.7806 43.1857 45.3344L43.7328 42.5096L45.678 47.8541C45.9229 48.527 46.6664 48.8732 47.3388 48.6285C48.0111 48.3838 48.3582 47.6408 48.1132 46.9678L44.568 37.2276C44.471 36.9614 44.2895 36.7342 44.0512 36.581C43.8129 36.4277 43.531 36.3567 43.2485 36.3788ZM30.7321 40.8846L23.4269 43.5434C23.267 43.6016 23.1201 43.6907 22.9946 43.8057C22.8691 43.9206 22.7675 44.0592 22.6956 44.2134C22.6237 44.3676 22.5829 44.5345 22.5755 44.7045C22.5681 44.8745 22.5942 45.0443 22.6525 45.2042C22.7106 45.3641 22.7997 45.511 22.9147 45.6365C23.0296 45.7619 23.1682 45.8635 23.3224 45.9355C23.4766 46.0074 23.6435 46.0482 23.8135 46.0556C23.9835 46.063 24.1533 46.0368 24.3132 45.9786L26.7482 45.0923L29.8502 53.615C29.9084 53.7749 29.9975 53.9218 30.1124 54.0472C30.2274 54.1727 30.3659 54.2743 30.5201 54.3462C30.6744 54.4181 30.8412 54.459 31.0112 54.4664C31.1813 54.4738 31.3511 54.4476 31.5109 54.3894C31.6709 54.3312 31.8178 54.2421 31.9432 54.1272C32.0687 54.0122 32.1703 53.8737 32.2422 53.7194C32.3141 53.5652 32.355 53.3983 32.3624 53.2283C32.3698 53.0583 32.3436 52.8885 32.2854 52.7286L29.1834 44.206L31.6184 43.3197C31.7783 43.2616 31.9252 43.1725 32.0507 43.0575C32.1762 42.9426 32.2777 42.804 32.3497 42.6498C32.4216 42.4956 32.4624 42.3287 32.4698 42.1587C32.4772 41.9887 32.451 41.8189 32.3928 41.659C32.3346 41.4991 32.2455 41.3522 32.1306 41.2267C32.0156 41.1012 31.8771 40.9996 31.7229 40.9277C31.5687 40.8558 31.4018 40.815 31.2318 40.8076C31.0618 40.8002 30.892 40.8263 30.7321 40.8846ZM57.4101 42.2051L52.5401 43.9777L49.4381 35.455C49.1931 34.7821 48.4497 34.4359 47.7773 34.6806C47.105 34.9253 46.7579 35.6683 47.0029 36.3413L50.5481 46.0816C50.6062 46.2415 50.6953 46.3884 50.8103 46.5138C50.9252 46.6393 51.0638 46.7409 51.218 46.8128C51.3722 46.8847 51.5391 46.9256 51.7091 46.933C51.8791 46.9404 52.0489 46.9142 52.2088 46.856L58.2964 44.6403C58.9688 44.3955 59.3158 43.6526 59.0708 42.9795C58.8258 42.3065 58.0825 41.9604 57.4101 42.2051Z" fill="white"></path><path d="M64.4009 56.294C63.6865 56.2902 63.1001 56.8618 63.0923 57.5768L62.8774 79.716C62.8708 80.4321 63.4454 81.0173 64.1611 81.0248C64.5047 81.0282 64.8356 80.8949 65.081 80.6543C65.3264 80.4138 65.4662 80.0856 65.4697 79.742L65.6846 57.6028C65.6877 57.2591 65.5543 56.9282 65.3136 56.6828C65.0729 56.4374 64.7446 56.2976 64.4009 56.294ZM54.8645 62.8392C54.7103 62.7672 54.5434 62.7264 54.3734 62.7189C54.2035 62.7115 54.0337 62.7376 53.8738 62.7958C53.7139 62.854 53.5671 62.9431 53.4416 63.0581C53.3162 63.173 53.2147 63.3116 53.1428 63.4658L48.4965 73.4299C48.4245 73.5841 48.3837 73.7509 48.3762 73.9209C48.3688 74.0909 48.3949 74.2606 48.4531 74.4205C48.5113 74.5804 48.6004 74.7273 48.7154 74.8527C48.8303 74.9781 48.9689 75.0797 49.1231 75.1516L59.0872 79.7979C59.2413 79.87 59.4081 79.911 59.5781 79.9185C59.7481 79.9259 59.9179 79.8997 60.0778 79.8412C60.2377 79.7833 60.3847 79.6942 60.5101 79.5792C60.6356 79.4643 60.737 79.3256 60.8087 79.1713C60.8806 79.0171 60.9215 78.8502 60.9289 78.6803C60.9364 78.5103 60.9103 78.3405 60.8521 78.1806C60.7939 78.0207 60.7048 77.8739 60.5898 77.7484C60.4748 77.623 60.3363 77.5215 60.1821 77.4496L51.3925 73.3507L55.4913 64.5609C55.5632 64.4067 55.6041 64.2399 55.6115 64.0699C55.619 63.8999 55.5928 63.7301 55.5346 63.5702C55.4764 63.4103 55.3873 63.2634 55.2723 63.138C55.1573 63.0126 55.0187 62.911 54.8645 62.8392ZM69.4747 57.5215C68.8261 57.219 68.0555 57.4995 67.753 58.1481C67.4506 58.7968 67.731 59.5673 68.3797 59.8698L77.1696 63.9684L73.0708 72.7582C72.9989 72.9124 72.958 73.0792 72.9506 73.2492C72.9431 73.4192 72.9693 73.5889 73.0274 73.7488C73.0856 73.9087 73.1748 74.0556 73.2897 74.181C73.4047 74.3064 73.5432 74.408 73.6974 74.4798C74.022 74.6312 74.3765 74.6366 74.688 74.5232C74.9996 74.4098 75.2679 74.1775 75.419 73.8533L80.0653 63.8892C80.1372 63.735 80.1781 63.5682 80.1855 63.3982C80.193 63.2282 80.1669 63.0584 80.1087 62.8985C80.0505 62.7387 79.9613 62.5918 79.8464 62.4664C79.7314 62.3409 79.5929 62.2394 79.4387 62.1675L69.4747 57.5215Z" fill="#1BAAAE"></path><path d="M168.696 8.26455C166.281 7.38549 163.586 8.64233 162.707 11.0575L140.331 72.5352C139.451 74.9504 140.708 77.6457 143.124 78.5248L187.036 94.5076C189.451 95.3867 192.147 94.1299 193.026 91.7147L210.607 43.4108L199.435 19.4526L168.696 8.26455Z" fill="#D2DCF0"></path><path d="M197.433 38.616L210.607 43.4108L199.435 19.4526L194.64 32.6264C193.761 35.0416 195.018 37.7369 197.433 38.616Z" fill="#B5C7EB"></path><path d="M182.012 44.2394C181.682 45.1468 180.686 45.6252 179.799 45.3024L144.329 32.3923C143.442 32.0695 142.987 31.063 143.317 30.1557L149.322 13.6578C149.652 12.7505 150.648 12.2721 151.535 12.5949L187.005 25.505C187.892 25.8278 188.347 26.8342 188.017 27.7416L182.012 44.2394Z" fill="#F15642"></path><path d="M152.447 19.1911C152.634 18.6788 153.245 18.2684 153.903 18.5077L157.527 19.8268C159.568 20.5695 160.913 22.5886 159.97 25.1773C159.078 27.6302 156.744 28.3279 154.703 27.5851L152.083 26.6317L151.338 28.6809C151.089 29.364 150.509 29.5902 149.944 29.3845C149.426 29.196 149.019 28.6106 149.268 27.9275L152.447 19.1911ZM154.196 20.8275L152.789 24.6931L155.409 25.6465C156.46 26.0293 157.626 25.4142 157.977 24.4517C158.372 23.3669 157.867 22.1637 156.816 21.7809L154.196 20.8275ZM160.518 33.2332C160 33.0447 159.537 32.5596 159.785 31.8784L162.993 23.0644C163.195 22.5075 163.908 22.3076 164.426 22.4961L168.019 23.8038C175.189 26.4134 171.124 37.0934 164.252 34.5923L160.518 33.2332ZM164.726 24.75L162.196 31.7011L164.799 32.6489C169.036 34.1908 171.754 27.3082 167.329 25.6978L164.726 24.75ZM176.84 29.3L175.942 31.7665L179.943 33.2227C180.508 33.4284 180.87 34.1929 180.673 34.7343C180.487 35.2467 179.769 35.4601 179.204 35.2544L175.203 33.7982L174.017 37.0564C173.819 37.5998 173.277 37.8749 172.728 37.6749C172.037 37.4235 171.767 36.8528 171.965 36.3094L175.173 27.4954C175.375 26.9384 175.947 26.6871 176.636 26.9378L182.143 28.9425C182.834 29.1939 183.095 29.748 182.892 30.305C182.711 30.8017 182.1 31.2121 181.409 30.9607L176.841 29.2981L176.84 29.3Z" fill="white"></path><path d="M184.219 77.4501C183.872 75.2535 179.863 72.4754 176.028 70.8297C175.805 70.3031 175.589 69.7731 175.382 69.2401C173.418 64.1685 174.09 58.0822 174.659 54.9355C174.797 54.4036 174.923 53.8687 175.036 53.331C175.103 53.0053 175.243 52.3257 174.572 52.0816C174.357 52.0034 174.116 52.0203 173.909 52.1307C173.571 52.3166 173.5 52.6229 173.419 52.9771C173.325 53.383 173.208 53.9294 173.094 54.56C172.286 57.6712 170.337 63.4455 166.368 67.1509C165.968 67.5245 165.562 67.8915 165.151 68.2519C160.362 67.9352 156.05 68.9096 154.86 70.5863C154.429 71.1933 154.355 71.8983 154.651 72.5731C154.996 73.3581 155.547 73.8923 156.287 74.1618C158.336 74.9075 161.502 73.4757 165.696 69.9085C166.906 70.0167 168.105 70.219 169.283 70.5135C169.817 70.6455 170.354 70.7661 170.893 70.8752C172.125 71.1199 173.471 71.5278 174.812 72.0661C176.763 76.4719 178.728 79.0604 180.651 79.7605C181.684 80.1357 182.723 79.9434 183.574 79.2188C184.099 78.7694 184.329 78.1409 184.219 77.4501ZM156.837 72.6493C156.516 72.5326 156.29 72.303 156.123 71.9248C156.055 71.7707 156.067 71.6636 156.171 71.5183C156.784 70.6549 159.6 69.8173 163.274 69.8026C160.392 72.0246 158.024 73.0814 156.837 72.6493ZM171.204 69.2982C170.779 69.2138 170.095 69.0607 169.676 68.9561C168.915 68.7615 168.119 68.6025 167.301 68.4812L167.464 68.3283C169.411 66.5117 171.087 64.0942 172.462 61.1245C172.443 64.4173 172.918 67.3355 173.881 69.8214C173.909 69.8949 173.939 69.9701 173.967 70.0451C173.006 69.7214 172.08 69.4723 171.204 69.2982ZM182.526 77.9964C182.113 78.3496 181.681 78.4261 181.169 78.2398C179.967 77.8023 178.532 75.9913 177.078 73.099C180.346 74.7758 182.477 76.7252 182.631 77.7017C182.653 77.8434 182.63 77.9061 182.526 77.9964Z" fill="#F15642"></path><g filter="url(#filter0_d_2001_274)"><path d="M94.0455 4.94556C91.4753 4.94556 89.3724 7.04844 89.3724 9.61864V75.0418C89.3724 77.612 91.4753 79.7149 94.0455 79.7149H140.776C143.347 79.7149 145.449 77.612 145.449 75.0418V23.6379L126.757 4.94556H94.0455Z" fill="#D2DCF0"></path></g><path d="M130.985 23.6379H145.004L126.312 4.94556V18.9648C126.312 21.535 128.415 23.6379 130.985 23.6379Z" fill="#B5C7EB"></path><path d="M120.526 35.2094C120.526 36.1885 119.708 36.9896 118.709 36.9896H78.7281C77.7286 36.9896 76.9108 36.1885 76.9108 35.2094V17.4072C76.9108 16.4281 77.7286 15.627 78.7281 15.627H118.709C119.708 15.627 120.526 16.4281 120.526 17.4072V35.2094Z" fill="#84BD5A"></path><path d="M84.5254 33.3919C83.2542 33.3919 82.7498 32.235 83.4762 31.4179L90.657 22.4339H84.7045C82.9516 22.4339 83.0928 20.1011 84.7045 20.1011H92.8337C94.3647 20.1011 94.8086 21.4647 93.7215 22.5693L86.8434 30.9808H93.3987C95.0129 30.9808 95.2147 33.3943 93.2398 33.3943H84.5254V33.3919ZM97.0433 21.3887C97.0433 19.8303 99.7068 19.7733 99.7068 21.3887V32.2327C99.7068 33.8076 97.0433 33.848 97.0433 32.2327V21.3887ZM103.281 21.3887C103.281 20.7615 103.805 20.0774 104.653 20.0774H109.312C111.935 20.0774 114.296 21.7307 114.296 24.8996C114.296 27.9022 111.935 29.5745 109.312 29.5745H105.944V32.083C105.944 32.9192 105.379 33.3919 104.653 33.3919C103.987 33.3919 103.281 32.9192 103.281 32.083V21.3887ZM105.942 22.4695V27.2014H109.309C110.661 27.2014 111.73 26.0778 111.73 24.8996C111.73 23.5717 110.661 22.4695 109.309 22.4695H105.942Z" fill="white"></path><path d="M103.218 67.2161C101.947 67.2161 101.442 66.0593 102.169 65.2421L109.349 56.2581H103.397C101.644 56.2581 101.785 53.9254 103.397 53.9254H111.526C113.057 53.9254 113.501 55.2889 112.414 56.3935L105.536 64.805H112.091C113.705 64.805 113.907 67.2185 111.932 67.2185H103.218V67.2161ZM115.736 55.2129C115.736 53.6546 118.399 53.5976 118.399 55.2129V66.0569C118.399 67.6318 115.736 67.6722 115.736 66.0569V55.2129ZM121.973 55.2129C121.973 54.5857 122.498 53.9016 123.345 53.9016H128.004C130.627 53.9016 132.988 55.5549 132.988 58.7238C132.988 61.7264 130.627 63.3987 128.004 63.3987H124.637V65.9072C124.637 66.7434 124.072 67.2161 123.345 67.2161C122.679 67.2161 121.973 66.7434 121.973 65.9072V55.2129ZM124.634 56.2937V61.0256H128.001C129.353 61.0256 130.423 59.902 130.423 58.7238C130.423 57.3959 129.353 56.2937 128.001 56.2937H124.634Z" fill="#84BD5A"></path><defs><filter id="filter0_d_2001_274" x="85.3724" y="0.945557" width="64.077" height="82.7693" filterUnits="userSpaceOnUse" color-interpolation-filters="sRGB"><feFlood flood-opacity="0" result="BackgroundImageFix"></feFlood><feColorMatrix in="SourceAlpha" type="matrix" values="0 0 0 0 0 0 0 0 0 0 0 0 0 0 0 0 0 0 127 0" result="hardAlpha"></feColorMatrix><feOffset></feOffset><feGaussianBlur stdDeviation="2"></feGaussianBlur><feComposite in2="hardAlpha" operator="out"></feComposite><feColorMatrix type="matrix" values="0 0 0 0 0 0 0 0 0 0 0 0 0 0 0 0 0 0 0.15 0"></feColorMatrix><feBlend mode="normal" in2="BackgroundImageFix" result="effect1_dropShadow_2001_274"></feBlend><feBlend mode="normal" in="SourceGraphic" in2="effect1_dropShadow_2001_274" result="shape"></feBlend></filter></defs></svg>