<svg width="36" height="36" viewBox="0 0 36 36" fill="none" xmlns="http://www.w3.org/2000/svg">
<rect x="0.5" y="0.5" width="35" height="35" rx="17.5" fill="#111214" stroke="#48494A"/>
<g clip-path="url(#clip0_0_1346)">
<path d="M11.333 14.6663C11.333 13.7823 11.6842 12.9344 12.3093 12.3093C12.9344 11.6842 13.7823 11.333 14.6663 11.333H21.333C22.2171 11.333 23.0649 11.6842 23.69 12.3093C24.3152 12.9344 24.6663 13.7823 24.6663 14.6663V21.333C24.6663 22.2171 24.3152 23.0649 23.69 23.69C23.0649 24.3152 22.2171 24.6663 21.333 24.6663H14.6663C13.7823 24.6663 12.9344 24.3152 12.3093 23.69C11.6842 23.0649 11.333 22.2171 11.333 21.333V14.6663Z" stroke="white" stroke-width="1.5" stroke-linecap="round" stroke-linejoin="round"/>
<path d="M15.5 18C15.5 18.663 15.7634 19.2989 16.2322 19.7678C16.7011 20.2366 17.337 20.5 18 20.5C18.663 20.5 19.2989 20.2366 19.7678 19.7678C20.2366 19.2989 20.5 18.663 20.5 18C20.5 17.337 20.2366 16.7011 19.7678 16.2322C19.2989 15.7634 18.663 15.5 18 15.5C17.337 15.5 16.7011 15.7634 16.2322 16.2322C15.7634 16.7011 15.5 17.337 15.5 18Z" stroke="white" stroke-width="1.5" stroke-linecap="round" stroke-linejoin="round"/>
<path d="M21.75 14.25V14.2583" stroke="white" stroke-width="2" stroke-linecap="round" stroke-linejoin="round"/>
</g>
<defs>
<clipPath id="clip0_0_1346">
<rect width="20" height="20" fill="white" transform="translate(8 8)"/>
</clipPath>
</defs>
</svg>
