<svg width="30" height="30" viewBox="0 0 30 30" fill="none" xmlns="http://www.w3.org/2000/svg">
<path d="M30 15C30 23.2843 23.2843 30 15 30C6.71573 30 0 23.2843 0 15C0 6.71573 6.71573 0 15 0C23.2843 0 30 6.71573 30 15ZM4.089 15C4.089 21.026 8.97402 25.911 15 25.911C21.026 25.911 25.911 21.026 25.911 15C25.911 8.97402 21.026 4.089 15 4.089C8.97402 4.089 4.089 8.97402 4.089 15Z" fill="#E0B359" fill-opacity="0.15"/>
<path d="M12.0639 2.38158C11.8081 1.28181 12.493 0.16792 13.6174 0.063839C16.1867 -0.174006 18.7864 0.254138 21.1601 1.32324C24.1581 2.67359 26.6295 4.97166 28.1938 7.86388C29.7581 10.7561 30.3287 14.0822 29.8179 17.3304C29.307 20.5787 27.743 23.569 25.3664 25.8415C22.9898 28.1139 19.9324 29.5425 16.6646 29.9074C13.3967 30.2722 10.0995 29.5533 7.28024 27.861C4.46098 26.1687 2.27587 23.597 1.06112 20.5415C0.0993807 18.1223 -0.211923 15.506 0.140733 12.9499C0.295056 11.8314 1.4385 11.197 2.52571 11.5019C3.61291 11.8067 4.22633 12.9376 4.12933 14.0626C3.98437 15.7438 4.23061 17.4455 4.86086 19.0309C5.74447 21.2535 7.33391 23.1241 9.38465 24.3551C11.4354 25.586 13.8338 26.109 16.2108 25.8436C18.5878 25.5782 20.8118 24.5391 22.5405 22.8861C24.2692 21.2331 25.4069 19.0579 25.7785 16.6952C26.1501 14.3324 25.735 11.913 24.5972 9.80919C23.4593 7.70539 21.6616 6.03377 19.4808 5.05152C17.9253 4.35092 16.2363 4.02872 14.5503 4.09826C13.4221 4.14479 12.3198 3.48134 12.0639 2.38158Z" fill="url(#paint0_angular_0_1270)"/>
<path d="M26.1751 8.44542C27.1491 7.87415 28.4162 8.19697 28.8498 9.23953C29.6489 11.1608 30.0424 13.2345 29.9964 15.3296C29.9353 18.1088 29.1031 20.8164 27.5927 23.1501C26.0822 25.4839 23.953 27.352 21.4426 28.546C18.9322 29.7399 16.1394 30.2128 13.3758 29.9118C10.6123 29.6108 7.98677 28.5478 5.79227 26.8414C3.59777 25.1349 1.92063 22.8522 0.948029 20.2481C-0.0245691 17.6439 -0.254362 14.8206 0.284296 12.0934C0.690371 10.0375 1.52112 8.09714 2.71506 6.393C3.36296 5.46823 4.66988 5.42577 5.49803 6.19332C6.32618 6.96087 6.35577 8.24705 5.75593 9.20369C5.05167 10.3269 4.55489 11.574 4.2958 12.8858C3.90398 14.8695 4.07113 16.9232 4.7786 18.8174C5.48606 20.7117 6.70601 22.3721 8.3023 23.6134C9.89858 24.8547 11.8084 25.6279 13.8186 25.8469C15.8288 26.0658 17.8603 25.7218 19.6863 24.8533C21.5124 23.9848 23.0612 22.626 24.1599 20.9284C25.2586 19.2308 25.8639 17.2614 25.9084 15.2398C25.9377 13.903 25.7211 12.5782 25.2752 11.3297C24.8953 10.2663 25.2011 9.01669 26.1751 8.44542Z" fill="url(#paint1_angular_0_1270)"/>
<defs>
<radialGradient id="paint0_angular_0_1270" cx="0" cy="0" r="1" gradientUnits="userSpaceOnUse" gradientTransform="translate(15 15) rotate(-114.59) scale(25.6123)">
<stop stop-color="#E0B359"/>
<stop offset="1" stop-color="#E0B359"/>
</radialGradient>
<radialGradient id="paint1_angular_0_1270" cx="0" cy="0" r="1" gradientUnits="userSpaceOnUse" gradientTransform="translate(15 15) rotate(-89.076) scale(24.4769 26.0874)">
<stop stop-color="#E0B359"/>
<stop offset="1" stop-color="#E0B359" stop-opacity="0"/>
</radialGradient>
</defs>
</svg>
