<svg width="54" height="52" viewBox="0 0 54 52" fill="none" xmlns="http://www.w3.org/2000/svg">
<path d="M14.7959 34.9021C13.4227 34.9021 12.3047 36.02 12.3047 37.3943C12.3047 38.7665 13.4227 39.8834 14.7959 39.8834C16.1692 39.8834 17.2871 38.7665 17.2871 37.3943C17.2871 36.02 16.1692 34.9021 14.7959 34.9021ZM14.7959 38.1959C14.353 38.1959 13.9923 37.8362 13.9923 37.3943C13.9923 36.9503 14.353 36.5896 14.7959 36.5896C15.2389 36.5896 15.5996 36.9503 15.5996 37.3943C15.5996 37.8362 15.2389 38.1959 14.7959 38.1959ZM53.1563 50.1214H51.5965V25.8601C51.5965 25.5427 51.4182 25.2526 51.1355 25.1081L38.1849 18.5173V6.04869C38.1849 5.58252 37.8073 5.20494 37.3412 5.20494H35.757V0.843758C35.757 0.377582 35.3794 0 34.9132 0H17.2238C16.7577 0 16.3801 0.377582 16.3801 0.843758V5.20388H14.7959C14.3298 5.20388 13.9522 5.58146 13.9522 6.04764V15.4661H5.18764C4.72146 15.4661 4.34388 15.8437 4.34388 16.3099V35.1795L0.346572 38.0936C0.256872 38.1588 0.180962 38.2411 0.123218 38.3358C0.0654735 38.4304 0.0270369 38.5356 0.0101234 38.6452C-0.0246817 38.8667 0.0312173 39.0924 0.163055 39.2738L1.85795 41.5878C2.02354 41.8135 2.27983 41.9327 2.53929 41.9327C2.71226 41.9327 2.88628 41.8799 3.03605 41.7703L4.34388 40.8168V50.1192H2.78398C2.3178 50.1192 1.94022 50.4968 1.94022 50.963C1.94022 51.4292 2.3178 51.8068 2.78398 51.8068H53.1563C53.6225 51.8068 54.0001 51.4292 54.0001 50.963C54.0001 50.4968 53.6225 50.1214 53.1563 50.1214ZM42.1727 39.5385L42.3657 39.2748C42.4976 39.0945 42.5524 38.8677 42.5187 38.6473C42.4849 38.4269 42.3636 38.2275 42.1822 38.0957L42.1727 38.0894V37.8183H45.9201V41.5562H42.1727V39.5385ZM40.5052 38.9605L39.8092 39.9119L28.2328 31.469C28.0851 31.3614 27.91 31.3066 27.736 31.3066C27.562 31.3066 27.3869 31.3604 27.2393 31.469L23.7007 34.0499L22.6988 33.3179L27.736 29.6465L40.5052 38.9605ZM18.0676 1.68752H34.0695V5.20388H18.0676V1.68752ZM15.6397 6.89245H36.4974V33.9497L28.2328 27.9221C28.0884 27.8167 27.9143 27.7599 27.7355 27.7599C27.5567 27.7599 27.3826 27.8167 27.2382 27.9221L21.2644 32.2759L15.6397 28.1752V6.89245ZM13.9522 24.2517H9.7587V20.5139H13.9522V24.2517ZM6.03139 17.1547H13.9522V18.8264H8.91494C8.44876 18.8264 8.07118 19.2039 8.07118 19.6701V25.0955C8.07118 25.5617 8.44876 25.9392 8.91494 25.9392H13.9522V28.1752L6.03139 33.9507V17.1547ZM2.72175 39.9129L2.02354 38.9605L14.7959 29.6486L27.5683 38.9616L26.8722 39.9129L15.2927 31.469C15.1483 31.3636 14.9742 31.3069 14.7954 31.3069C14.6166 31.3069 14.4425 31.3636 14.2981 31.469L2.72175 39.9129ZM12.309 50.1214V44.2899H17.2829V50.1214H12.309ZM18.9704 50.1214V43.4462C18.9704 42.98 18.5928 42.6024 18.1267 42.6024H11.4652C10.999 42.6024 10.6214 42.98 10.6214 43.4462V50.1214H6.03139V39.5881L14.7959 33.1956L23.5605 39.586V50.1214H18.9704ZM25.249 50.1214V40.8168L26.56 41.7724C26.9366 42.0466 27.4639 41.9643 27.7381 41.5888L29.4299 39.2748C29.5617 39.0937 29.6167 38.8677 29.5828 38.6462C29.548 38.4251 29.4271 38.2268 29.2463 38.0946L25.132 35.0951L27.736 33.1956L36.4985 39.586V50.1214H25.249ZM38.1849 50.1214V40.8168L39.4959 41.7724C39.6399 41.8781 39.814 41.935 39.9927 41.9348C40.1677 41.9348 40.3407 41.8789 40.4863 41.7745V42.3989C40.4863 42.865 40.8638 43.2426 41.33 43.2426H46.7649C47.2311 43.2426 47.6086 42.865 47.6086 42.3989V36.9735C47.6086 36.5073 47.2311 36.1297 46.7649 36.1297H41.33C40.9018 36.1297 40.5485 36.4493 40.4947 36.8638L38.186 35.1805V20.4105L49.91 26.3769V50.1214H38.1849Z" fill="#1BAAAE"/>
<rect x="41" y="28" width="6" height="6" rx="0.5" stroke="#1BAAAE" stroke-width="1.5"/>
<rect x="18" y="19" width="7" height="7" rx="0.5" stroke="#1BAAAE" stroke-width="1.2"/>
<rect x="18" y="10" width="7" height="7" rx="0.5" stroke="#1BAAAE" stroke-width="1.2"/>
<rect x="27" y="19" width="7" height="7" rx="0.5" stroke="#1BAAAE" stroke-width="1.2"/>
<rect x="27" y="10" width="7" height="7" rx="0.5" stroke="#1BAAAE" stroke-width="1.2"/>
</svg>
