<svg width="55" height="54" viewBox="0 0 55 54" fill="none" xmlns="http://www.w3.org/2000/svg">
<path d="M36.3237 19.7548C36.2563 19.6651 36.1718 19.5898 36.075 19.5332C35.9782 19.4766 35.8711 19.4399 35.76 19.4252C35.6488 19.4105 35.5358 19.4181 35.4277 19.4476C35.3195 19.4771 35.2183 19.5279 35.13 19.597C35.0417 19.6661 34.968 19.7521 34.9133 19.85C34.8587 19.9478 34.8241 20.0556 34.8116 20.1671C34.7991 20.2785 34.8089 20.3913 34.8405 20.4989C34.8721 20.6064 34.9249 20.7066 34.9957 20.7935C36.3907 22.5682 37.1454 24.762 37.1373 27.0193C37.1369 29.266 36.3888 31.4486 35.0109 33.2231C33.633 34.9976 31.7037 36.2631 29.5271 36.8199C27.3505 37.3767 25.0505 37.1932 22.9897 36.2983C20.929 35.4035 19.2246 33.8482 18.1455 31.8777C17.0663 29.9072 16.6737 27.6336 17.0295 25.4152C17.3854 23.1969 18.4694 21.1602 20.1108 19.6261C21.7521 18.0919 23.8574 17.1478 26.0947 16.9424C28.3319 16.737 30.5739 17.2821 32.4671 18.4918C32.6556 18.6123 32.8843 18.653 33.1028 18.6049C33.3213 18.5569 33.5118 18.424 33.6323 18.2354C33.7529 18.0469 33.7936 17.8183 33.7455 17.5997C33.6974 17.3812 33.5645 17.1907 33.376 17.0702C30.8819 15.4774 27.8806 14.8789 24.9663 15.3931C22.0519 15.9073 19.4368 17.4968 17.6383 19.8471C15.8399 22.1973 14.9892 25.137 15.2547 28.0845C15.5201 31.0319 16.8823 33.7723 19.0717 35.7634C21.2611 37.7546 24.1182 38.8512 27.0775 38.8365C30.0369 38.8218 32.8829 37.6967 35.0523 35.6838C37.2218 33.671 38.5566 30.9171 38.7927 27.9672C39.0287 25.0172 38.1488 22.0861 36.327 19.7539L36.3237 19.7548Z" fill="#1BAAAE"/>
<path d="M39.8731 36.294C39.7361 36.1538 39.6516 35.9705 39.6341 35.7753C39.6166 35.58 39.6671 35.3847 39.777 35.2223C40.6777 33.8286 41.342 32.2956 41.7432 30.6854L43.9143 31.7713C43.905 31.8734 43.8831 31.9728 43.8831 32.0774C43.8807 32.8869 44.1687 33.6704 44.6947 34.2857C45.2208 34.901 45.9501 35.3072 46.7502 35.4306C47.5502 35.554 48.368 35.3864 49.055 34.9582C49.742 34.53 50.2527 33.8697 50.4943 33.0971C50.7359 32.3245 50.6924 31.4908 50.3718 30.7475C50.0511 30.0042 49.4745 29.4005 48.7467 29.0461C48.0189 28.6917 47.1881 28.6101 46.4052 28.816C45.6223 29.022 44.9393 29.5019 44.4801 30.1685L42.0687 28.9628C42.2285 27.72 42.2362 26.4623 42.0914 25.2176C41.8194 22.9392 41.025 20.7543 39.7702 18.8333L41.6817 16.9219C43.2006 18.1361 45.1268 18.7225 47.0647 18.5608C49.0026 18.399 50.8049 17.5013 52.1016 16.0521C53.3982 14.6029 54.0906 12.7121 54.0366 10.7683C53.9827 8.82442 53.1864 6.97502 51.8113 5.59998C50.4363 4.22494 48.5869 3.42865 46.643 3.37467C44.6992 3.3207 42.8084 4.01314 41.3592 5.30976C39.91 6.60638 39.0123 8.40874 38.8505 10.3466C38.6888 12.2845 39.2752 14.2107 40.4894 15.7297L38.7686 17.4505C36.3275 14.4339 32.8212 12.4699 28.9738 11.9642C28.6028 11.9178 28.2327 11.89 27.8634 11.8697V10.0367C28.6582 9.83153 29.3508 9.34348 29.8115 8.66409C30.2722 7.98471 30.4693 7.16062 30.3659 6.3463C30.2625 5.53197 29.8656 4.78333 29.2497 4.24069C28.6338 3.69805 27.8411 3.39868 27.0202 3.39868C26.1993 3.39868 25.4067 3.69805 24.7907 4.24069C24.1748 4.78333 23.7779 5.53197 23.6745 6.3463C23.5711 7.16062 23.7682 7.98471 24.2289 8.66409C24.6896 9.34348 25.3823 9.83153 26.1771 10.0367V11.8706C22.738 12.0535 19.4651 13.4079 16.9025 15.7086L13.5518 12.3579C14.766 10.839 15.3525 8.91273 15.1907 6.97487C15.029 5.037 14.1313 3.23464 12.682 1.93802C11.2328 0.641401 9.34208 -0.0510409 7.39822 0.00293403C5.45437 0.0569089 3.60497 0.853202 2.22993 2.22825C0.854888 3.60329 0.0585952 5.45268 0.00462032 7.39654C-0.0493546 9.34039 0.643087 11.2311 1.93971 12.6804C3.23633 14.1296 5.03869 15.0273 6.97655 15.189C8.91442 15.3508 10.8407 14.7643 12.3596 13.5501L15.7094 16.9016C13.4091 19.4646 12.0545 22.7372 11.8706 26.1762H10.0376C9.83237 25.3814 9.34433 24.6888 8.66494 24.228C7.98555 23.7673 7.16146 23.5702 6.34714 23.6737C5.53282 23.7771 4.78417 24.174 4.24154 24.7899C3.6989 25.4058 3.39952 26.1985 3.39952 27.0194C3.39952 27.8402 3.6989 28.6329 4.24154 29.2488C4.78417 29.8648 5.53282 30.2616 6.34714 30.3651C7.16146 30.4685 7.98555 30.2714 8.66494 29.8107C9.34433 29.35 9.83237 28.6573 10.0376 27.8625H11.8714C11.8908 28.2318 11.9195 28.6019 11.9659 28.9729C12.305 31.6046 13.3397 34.0983 14.9632 36.197L12.3579 38.8023C10.839 37.5881 8.91273 37.0017 6.97487 37.1634C5.037 37.3252 3.23464 38.2229 1.93802 39.6721C0.641401 41.1213 -0.0510409 43.012 0.00293403 44.9559C0.0569089 46.8998 0.853202 48.7492 2.22825 50.1242C3.60329 51.4992 5.45268 52.2955 7.39654 52.3495C9.34039 52.4035 11.2311 51.711 12.6804 50.4144C14.1296 49.1178 15.0273 47.3154 15.189 45.3776C15.3508 43.4397 14.7643 41.5135 13.5501 39.9945L16.0644 37.4803C18.4861 40.0356 21.7235 41.6661 25.2184 42.0906C26.1542 42.199 27.0979 42.2218 28.0379 42.1589L28.6003 44.4084C27.9178 44.8432 27.4153 45.5097 27.185 46.2854C26.9548 47.0611 27.0122 47.8939 27.3469 48.6306C27.6815 49.3673 28.2709 49.9585 29.0066 50.2954C29.7423 50.6323 30.5748 50.6923 31.3512 50.4645C32.1277 50.2366 32.7957 49.7361 33.2326 49.055C33.6695 48.3739 33.8459 47.558 33.7293 46.7573C33.6127 45.9566 33.211 45.2249 32.598 44.6967C31.985 44.1684 31.2019 43.8793 30.3928 43.8823C30.3312 43.8823 30.2739 43.8974 30.2124 43.9008L29.7233 41.9456C31.6826 41.5944 33.5525 40.8569 35.224 39.7761C35.3862 39.6661 35.5814 39.6156 35.7766 39.6331C35.9717 39.6507 36.1548 39.7351 36.2948 39.8723L49.6831 53.2589C49.9178 53.494 50.1965 53.6805 50.5034 53.8077C50.8103 53.9348 51.1392 54.0002 51.4714 54C51.5397 54 51.608 54 51.6763 53.9916C52.0434 53.9613 52.3995 53.8514 52.7198 53.6695C53.0402 53.4876 53.3171 53.2382 53.5312 52.9385C53.8736 52.4335 54.0275 51.8241 53.9658 51.2171C53.9041 50.61 53.6309 50.044 53.194 49.6182L39.8731 36.294ZM47.2557 30.3919C47.5892 30.3919 47.9152 30.4908 48.1925 30.6761C48.4698 30.8614 48.686 31.1248 48.8136 31.4329C48.9412 31.7411 48.9746 32.0801 48.9096 32.4072C48.8445 32.7343 48.6839 33.0348 48.4481 33.2706C48.2122 33.5065 47.9118 33.6671 47.5847 33.7321C47.2576 33.7972 46.9185 33.7638 46.6104 33.6362C46.3022 33.5085 46.0389 33.2924 45.8536 33.0151C45.6683 32.7378 45.5694 32.4118 45.5694 32.0782C45.5694 31.631 45.7471 31.2021 46.0633 30.8858C46.3795 30.5696 46.8085 30.3919 47.2557 30.3919ZM46.4125 5.0976C47.5798 5.0976 48.7209 5.44375 49.6915 6.09227C50.6621 6.74079 51.4186 7.66256 51.8653 8.74101C52.312 9.81946 52.4289 11.0062 52.2011 12.151C51.9734 13.2959 51.4113 14.3476 50.5859 15.173C49.7605 15.9984 48.7088 16.5605 47.564 16.7882C46.4191 17.016 45.2324 16.8991 44.1539 16.4524C43.0755 16.0057 42.1537 15.2492 41.5052 14.2786C40.8567 13.308 40.5105 12.1669 40.5105 10.9996C40.5123 9.43485 41.1347 7.93469 42.2412 6.82823C43.3476 5.72178 44.8478 5.09938 46.4125 5.0976ZM7.62788 50.6274C6.46057 50.6274 5.31947 50.2813 4.34889 49.6328C3.37831 48.9842 2.62184 48.0625 2.17513 46.984C1.72842 45.9056 1.61154 44.7189 1.83927 43.574C2.067 42.4291 2.62911 41.3775 3.45452 40.5521C4.27993 39.7266 5.33157 39.1645 6.47645 38.9368C7.62133 38.7091 8.80803 38.826 9.88648 39.2727C10.9649 39.7194 11.8867 40.4758 12.5352 41.4464C13.1837 42.417 13.5299 43.5581 13.5299 44.7254C13.5281 46.2902 12.9057 47.7903 11.7993 48.8968C10.6928 50.0032 9.19264 50.6256 7.62788 50.6274ZM32.0791 47.2548C32.0791 47.5884 31.9802 47.9144 31.7949 48.1917C31.6096 48.469 31.3462 48.6851 31.0381 48.8128C30.73 48.9404 30.3909 48.9738 30.0638 48.9087C29.7367 48.8437 29.4362 48.6831 29.2004 48.4472C28.9646 48.2114 28.804 47.9109 28.7389 47.5838C28.6738 47.2567 28.7072 46.9177 28.8349 46.6095C28.9625 46.3014 29.1786 46.038 29.4559 45.8527C29.7332 45.6674 30.0593 45.5686 30.3928 45.5686C30.84 45.5686 31.2689 45.7462 31.5852 46.0625C31.9014 46.3787 32.0791 46.8076 32.0791 47.2548ZM25.3339 6.78389C25.3339 6.45037 25.4328 6.12435 25.6181 5.84704C25.8034 5.56973 26.0668 5.35359 26.3749 5.22596C26.683 5.09833 27.0221 5.06493 27.3492 5.13C27.6763 5.19507 27.9768 5.35567 28.2126 5.5915C28.4484 5.82733 28.609 6.1278 28.6741 6.45491C28.7392 6.78202 28.7058 7.12107 28.5781 7.4292C28.4505 7.73733 28.2344 8.0007 27.9571 8.18599C27.6798 8.37128 27.3537 8.47018 27.0202 8.47018C26.573 8.47018 26.1441 8.29252 25.8278 7.97628C25.5116 7.66004 25.3339 7.23112 25.3339 6.78389ZM7.62788 13.529C6.46057 13.529 5.31947 13.1829 4.34889 12.5344C3.37831 11.8859 2.62184 10.9641 2.17513 9.88564C1.72842 8.80719 1.61154 7.62049 1.83927 6.47561C2.067 5.33073 2.62911 4.27909 3.45452 3.45368C4.27993 2.62827 5.33157 2.06616 6.47645 1.83843C7.62133 1.61069 8.80803 1.72757 9.88648 2.17428C10.9649 2.62099 11.8867 3.37747 12.5352 4.34805C13.1837 5.31863 13.5299 6.45973 13.5299 7.62703C13.5281 9.1918 12.9057 10.692 11.7993 11.7984C10.6928 12.9049 9.19264 13.5273 7.62788 13.529ZM6.78473 28.7057C6.45122 28.7057 6.12519 28.6068 5.84788 28.4215C5.57057 28.2362 5.35443 27.9728 5.2268 27.6647C5.09917 27.3566 5.06578 27.0175 5.13084 26.6904C5.19591 26.3633 5.35651 26.0628 5.59234 25.827C5.82818 25.5911 6.12864 25.4305 6.45575 25.3655C6.78286 25.3004 7.12192 25.3338 7.43005 25.4614C7.73818 25.5891 8.00154 25.8052 8.18683 26.0825C8.37212 26.3598 8.47102 26.6859 8.47102 27.0194C8.47102 27.4666 8.29336 27.8955 7.97712 28.2118C7.66088 28.528 7.23196 28.7057 6.78473 28.7057ZM52.1636 51.9537C52.0925 52.0555 51.9998 52.1403 51.8921 52.2021C51.7844 52.2639 51.6643 52.3012 51.5405 52.3112C51.4185 52.3223 51.2955 52.3061 51.1804 52.2638C51.0654 52.2215 50.9611 52.1542 50.8753 52.0667L37.4887 38.6801C37.256 38.4458 36.9792 38.2599 36.6743 38.1331C36.3694 38.0063 36.0424 37.9412 35.7122 37.9415C35.2139 37.9437 34.7269 38.0901 34.31 38.363C31.6785 40.0687 28.5312 40.7954 25.4182 40.4161C22.9049 40.1151 20.5269 39.113 18.5561 37.5244C16.5853 35.9358 15.1012 33.8247 14.2736 31.4325C13.4459 29.0403 13.3079 26.4635 13.8755 23.9966C14.4431 21.5297 15.6933 19.2723 17.4832 17.4824C19.2732 15.6925 21.5306 14.4423 23.9975 13.8747C26.4644 13.3071 29.0412 13.445 31.4334 14.2727C33.8256 15.1004 35.9366 16.5845 37.5252 18.5552C39.1139 20.526 40.1159 22.904 40.4169 25.4174C40.7957 28.5308 40.0678 31.6782 38.3605 34.3092C38.0392 34.7947 37.8955 35.3764 37.9539 35.9557C38.0123 36.5349 38.2691 37.0762 38.6809 37.4879L52.0026 50.8095C52.1571 50.9525 52.2575 51.1445 52.2868 51.3529C52.3162 51.5614 52.2727 51.7736 52.1636 51.9537Z" fill="#1BAAAE"/>
<path d="M20.275 30.3919V31.8978C20.2776 32.3787 20.4156 32.8492 20.6731 33.2553C20.9306 33.6615 21.2973 33.987 21.7311 34.1945C23.372 35.0194 25.1832 35.4491 27.0197 35.4491C28.8563 35.4491 30.6675 35.0194 32.3084 34.1945C32.7424 33.9872 33.1093 33.6618 33.367 33.2556C33.6247 32.8494 33.7627 32.3788 33.7653 31.8978V30.3919C33.7629 29.0526 33.3623 27.7442 32.6143 26.6332C31.8663 25.5222 30.8048 24.6587 29.5648 24.1527C30.0963 23.5458 30.3904 22.7672 30.3927 21.9605C30.3927 21.066 30.0374 20.2082 29.4049 19.5757C28.7725 18.9432 27.9146 18.5879 27.0202 18.5879C26.1257 18.5879 25.2679 18.9432 24.6354 19.5757C24.0029 20.2082 23.6476 21.066 23.6476 21.9605C23.6499 22.7672 23.944 23.5458 24.4756 24.1527C23.2355 24.6587 22.174 25.5222 21.426 26.6332C20.6781 27.7442 20.2774 29.0526 20.275 30.3919ZM25.3339 21.9605C25.3339 21.627 25.4328 21.3009 25.6181 21.0236C25.8034 20.7463 26.0667 20.5302 26.3748 20.4025C26.683 20.2749 27.022 20.2415 27.3491 20.3066C27.6763 20.3717 27.9767 20.5323 28.2126 20.7681C28.4484 21.0039 28.609 21.3044 28.6741 21.6315C28.7391 21.9586 28.7057 22.2977 28.5781 22.6058C28.4505 22.9139 28.2343 23.1773 27.957 23.3626C27.6797 23.5479 27.3537 23.6468 27.0202 23.6468C26.5729 23.6468 26.144 23.4691 25.8278 23.1529C25.5115 22.8366 25.3339 22.4077 25.3339 21.9605ZM27.0202 25.3331C28.3614 25.3344 29.6474 25.8678 30.5958 26.8162C31.5443 27.7647 32.0777 29.0506 32.079 30.3919V31.8978C32.0774 32.0603 32.03 32.2191 31.9423 32.356C31.8547 32.4929 31.7302 32.6023 31.5833 32.6718C30.1705 33.3937 28.6067 33.7702 27.0202 33.7702C25.4337 33.7702 23.8698 33.3937 22.4571 32.6718C22.3101 32.6023 22.1857 32.4929 22.098 32.356C22.0103 32.2191 21.963 32.0603 21.9613 31.8978V30.3919C21.9626 29.0506 22.4961 27.7647 23.4445 26.8162C24.3929 25.8678 25.6789 25.3344 27.0202 25.3331ZM43.5762 15.5264C45.4008 16.2344 47.4242 16.2344 49.2488 15.5264C49.6537 15.372 50.0023 15.0984 50.2486 14.7418C50.4948 14.3852 50.6272 13.9624 50.6282 13.529C50.6257 12.7892 50.4279 12.0632 50.0549 11.4244C49.6818 10.7855 49.1466 10.2565 48.5035 9.89086C48.7623 9.51068 48.9125 9.06714 48.938 8.60795C48.9636 8.14877 48.8634 7.69131 48.6484 7.28479C48.4333 6.87827 48.1115 6.53807 47.7175 6.30079C47.3236 6.06351 46.8724 5.93813 46.4125 5.93813C45.9526 5.93813 45.5014 6.06351 45.1075 6.30079C44.7135 6.53807 44.3917 6.87827 44.1766 7.28479C43.9616 7.69131 43.8614 8.14877 43.887 8.60795C43.9125 9.06714 44.0627 9.51068 44.3215 9.89086C43.6784 10.2565 43.1432 10.7855 42.7701 11.4244C42.397 12.0632 42.1993 12.7892 42.1968 13.529C42.1978 13.9624 42.3302 14.3852 42.5764 14.7418C42.8227 15.0984 43.1713 15.372 43.5762 15.5264ZM45.5694 8.47016C45.5694 8.3034 45.6188 8.14039 45.7114 8.00173C45.8041 7.86308 45.9358 7.75501 46.0898 7.69119C46.2439 7.62738 46.4134 7.61068 46.577 7.64321C46.7405 7.67575 46.8908 7.75605 47.0087 7.87397C47.1266 7.99188 47.2069 8.14212 47.2394 8.30567C47.272 8.46922 47.2553 8.63875 47.1915 8.79282C47.1276 8.94688 47.0196 9.07856 46.8809 9.17121C46.7423 9.26385 46.5793 9.3133 46.4125 9.3133C46.1889 9.3133 45.9744 9.22447 45.8163 9.06635C45.6582 8.90823 45.5694 8.69377 45.5694 8.47016ZM46.4125 10.9996C47.0833 10.9996 47.7267 11.2661 48.2011 11.7404C48.6754 12.2148 48.9419 12.8582 48.9419 13.529C48.9426 13.6201 48.9155 13.7092 48.8643 13.7845C48.8131 13.8598 48.7402 13.9177 48.6553 13.9506C47.2144 14.5189 45.6115 14.5189 44.1706 13.9506C44.0855 13.9179 44.0124 13.86 43.961 13.7847C43.9097 13.7094 43.8825 13.6202 43.8831 13.529C43.8831 12.8582 44.1496 12.2148 44.6239 11.7404C45.0983 11.2661 45.7416 10.9996 46.4125 10.9996ZM9.71883 43.6166C9.97761 43.2365 10.1278 42.7929 10.1534 42.3337C10.1789 41.8746 10.0787 41.4171 9.8637 41.0106C9.64865 40.6041 9.32684 40.2639 8.93288 40.0266C8.53892 39.7893 8.08773 39.6639 7.62783 39.6639C7.16794 39.6639 6.71674 39.7893 6.32279 40.0266C5.92883 40.2639 5.60702 40.6041 5.39197 41.0106C5.17692 41.4171 5.07677 41.8746 5.1023 42.3337C5.12782 42.7929 5.27805 43.2365 5.53683 43.6166C4.89372 43.9823 4.35856 44.5113 3.98547 45.1502C3.61238 45.789 3.4146 46.515 3.41211 47.2548C3.41314 47.6882 3.54552 48.111 3.79177 48.4676C4.03803 48.8242 4.3866 49.0978 4.79149 49.2522C6.61612 49.9602 8.63954 49.9602 10.4642 49.2522C10.8691 49.0978 11.2176 48.8242 11.4639 48.4676C11.7101 48.111 11.8425 47.6882 11.8436 47.2548C11.8411 46.515 11.6433 45.789 11.2702 45.1502C10.8971 44.5113 10.3619 43.9823 9.71883 43.6166ZM6.78469 42.1959C6.78469 42.0292 6.83414 41.8662 6.92678 41.7275C7.01943 41.5889 7.15111 41.4808 7.30518 41.417C7.45924 41.3532 7.62877 41.3365 7.79232 41.369C7.95588 41.4015 8.10611 41.4818 8.22403 41.5998C8.34194 41.7177 8.42224 41.8679 8.45478 42.0315C8.48731 42.195 8.47061 42.3645 8.4068 42.5186C8.34298 42.6727 8.23491 42.8044 8.09626 42.897C7.95761 42.9896 7.79459 43.0391 7.62783 43.0391C7.40422 43.0391 7.18976 42.9503 7.03164 42.7921C6.87352 42.634 6.78469 42.4196 6.78469 42.1959ZM9.8706 47.6764C8.42971 48.2447 6.8268 48.2447 5.38591 47.6764C5.30083 47.6437 5.22773 47.5858 5.17637 47.5105C5.125 47.4352 5.09781 47.346 5.0984 47.2548C5.0984 46.584 5.36489 45.9406 5.83925 45.4662C6.31361 44.9919 6.95699 44.7254 7.62783 44.7254C8.29868 44.7254 8.94205 44.9919 9.41641 45.4662C9.89078 45.9406 10.1573 46.584 10.1573 47.2548C10.1579 47.3459 10.1309 47.435 10.0796 47.5103C10.0284 47.5856 9.95553 47.6435 9.8706 47.6764ZM9.71883 6.51828C9.97761 6.1381 10.1278 5.69456 10.1534 5.23537C10.1789 4.77619 10.0787 4.31873 9.8637 3.91221C9.64865 3.50569 9.32684 3.1655 8.93288 2.92822C8.53892 2.69094 8.08773 2.56555 7.62783 2.56555C7.16794 2.56555 6.71674 2.69094 6.32279 2.92822C5.92883 3.1655 5.60702 3.50569 5.39197 3.91221C5.17692 4.31873 5.07677 4.77619 5.1023 5.23537C5.12782 5.69456 5.27805 6.1381 5.53683 6.51828C4.89372 6.88395 4.35856 7.41294 3.98547 8.05178C3.61238 8.69062 3.4146 9.41665 3.41211 10.1564C3.41314 10.5898 3.54552 11.0127 3.79177 11.3693C4.03803 11.7258 4.3866 11.9994 4.79149 12.1539C6.61612 12.8618 8.63954 12.8618 10.4642 12.1539C10.8691 11.9994 11.2176 11.7258 11.4639 11.3693C11.7101 11.0127 11.8425 10.5898 11.8436 10.1564C11.8411 9.41665 11.6433 8.69062 11.2702 8.05178C10.8971 7.41294 10.3619 6.88395 9.71883 6.51828ZM6.78469 5.09758C6.78469 4.93082 6.83414 4.76781 6.92678 4.62915C7.01943 4.4905 7.15111 4.38243 7.30518 4.31862C7.45924 4.2548 7.62877 4.2381 7.79232 4.27064C7.95588 4.30317 8.10611 4.38347 8.22403 4.50139C8.34194 4.6193 8.42224 4.76954 8.45478 4.93309C8.48731 5.09664 8.47061 5.26617 8.4068 5.42024C8.34298 5.5743 8.23491 5.70598 8.09626 5.79863C7.95761 5.89127 7.79459 5.94072 7.62783 5.94072C7.40422 5.94072 7.18976 5.85189 7.03164 5.69377C6.87352 5.53565 6.78469 5.3212 6.78469 5.09758ZM9.8706 10.578C8.42971 11.1463 6.8268 11.1463 5.38591 10.578C5.30083 10.5453 5.22773 10.4874 5.17637 10.4121C5.125 10.3368 5.09781 10.2476 5.0984 10.1564C5.0984 9.4856 5.36489 8.84223 5.83925 8.36787C6.31361 7.89351 6.95699 7.62701 7.62783 7.62701C8.29868 7.62701 8.94205 7.89351 9.41641 8.36787C9.89078 8.84223 10.1573 9.4856 10.1573 10.1564C10.1579 10.2475 10.1309 10.3366 10.0796 10.4119C10.0284 10.4872 9.95553 10.5452 9.8706 10.578Z" fill="#1BAAAE"/>
</svg>
