<svg width="111" height="21" viewBox="0 0 111 21" fill="none" xmlns="http://www.w3.org/2000/svg">
<path d="M6.97654 6.05858L0.825662 6.94281L0.71672 6.96479C0.551803 7.0082 0.401459 7.09423 0.281042 7.2141C0.160624 7.33396 0.0744485 7.48337 0.0313139 7.64706C-0.0118206 7.81074 -0.0103683 7.98285 0.0355226 8.1458C0.0814135 8.30875 0.170099 8.45671 0.292522 8.57456L4.74853 12.8752L3.69768 18.9501L3.68514 19.0552C3.67505 19.2244 3.71047 19.3931 3.78777 19.5442C3.86508 19.6953 3.98149 19.8233 4.12509 19.9151C4.26869 20.0069 4.43433 20.0592 4.60503 20.0667C4.77573 20.0742 4.94536 20.0365 5.09657 19.9576L10.5976 17.0899L16.0862 19.9576L16.1826 20.0016C16.3417 20.0638 16.5147 20.0828 16.6837 20.0568C16.8527 20.0308 17.0117 19.9607 17.1444 19.8537C17.277 19.7467 17.3786 19.6066 17.4387 19.4478C17.4987 19.289 17.5151 19.1172 17.4861 18.9501L16.4342 12.8752L20.8922 8.5736L20.9674 8.49235C21.0748 8.36117 21.1452 8.20409 21.1715 8.03714C21.1978 7.87018 21.1789 7.6993 21.1169 7.54191C21.0549 7.38452 20.9519 7.24624 20.8184 7.14117C20.6849 7.0361 20.5258 6.96798 20.3571 6.94376L14.2062 6.05858L11.4567 0.533373C11.3771 0.37329 11.2539 0.238487 11.1011 0.144223C10.9483 0.0499595 10.7719 0 10.5919 0C10.4119 0 10.2355 0.0499595 10.0826 0.144223C9.92981 0.238487 9.80664 0.37329 9.72708 0.533373L6.97654 6.05858Z" fill="#EFB900"/>
<path d="M29.5263 6.05858L23.5373 6.94281L23.4313 6.96479C23.2707 7.0082 23.1243 7.09423 23.007 7.2141C22.8898 7.33396 22.8059 7.48337 22.7639 7.64706C22.7219 7.81074 22.7233 7.98285 22.768 8.1458C22.8127 8.30875 22.899 8.45671 23.0182 8.57456L27.357 12.8752L26.3338 18.9501L26.3216 19.0552C26.3117 19.2244 26.3462 19.3931 26.4215 19.5442C26.4968 19.6953 26.6101 19.8233 26.7499 19.9151C26.8898 20.0069 27.051 20.0592 27.2172 20.0667C27.3834 20.0742 27.5486 20.0365 27.6958 19.9576L33.0522 17.0899L38.3963 19.9576L38.4901 20.0016C38.6451 20.0638 38.8135 20.0828 38.9781 20.0568C39.1426 20.0308 39.2974 19.9607 39.4266 19.8537C39.5558 19.7467 39.6547 19.6066 39.7131 19.4478C39.7716 19.289 39.7875 19.1172 39.7593 18.9501L38.7352 12.8752L43.0758 8.5736L43.149 8.49235C43.2536 8.36117 43.3222 8.20409 43.3477 8.03714C43.3733 7.87018 43.355 7.6993 43.2946 7.54191C43.2342 7.38452 43.1339 7.24624 43.004 7.14117C42.874 7.0361 42.719 6.96798 42.5548 6.94376L36.5658 6.05858L33.8886 0.533373C33.8111 0.37329 33.6912 0.238487 33.5424 0.144223C33.3935 0.0499595 33.2218 0 33.0465 0C32.8713 0 32.6995 0.0499595 32.5507 0.144223C32.4019 0.238487 32.282 0.37329 32.2045 0.533373L29.5263 6.05858Z" fill="#EFB900"/>
<path d="M51.8847 6.05858L45.7339 6.94281L45.6249 6.96479C45.46 7.0082 45.3097 7.09423 45.1892 7.2141C45.0688 7.33396 44.9827 7.48337 44.9395 7.64706C44.8964 7.81074 44.8978 7.98285 44.9437 8.1458C44.9896 8.30875 45.0783 8.45671 45.2007 8.57456L49.6567 12.8752L48.6059 18.9501L48.5933 19.0552C48.5833 19.2244 48.6187 19.3931 48.696 19.5442C48.7733 19.6953 48.8897 19.8233 49.0333 19.9151C49.1769 20.0069 49.3425 20.0592 49.5132 20.0667C49.6839 20.0742 49.8536 20.0365 50.0048 19.9576L55.5059 17.0899L60.9944 19.9576L61.0908 20.0016C61.2499 20.0638 61.4229 20.0828 61.5919 20.0568C61.7609 20.0308 61.9199 19.9607 62.0526 19.8537C62.1852 19.7467 62.2868 19.6066 62.3469 19.4478C62.4069 19.289 62.4233 19.1172 62.3943 18.9501L61.3424 12.8752L65.8004 8.5736L65.8756 8.49235C65.983 8.36117 66.0534 8.20409 66.0797 8.03714C66.106 7.87018 66.0871 7.6993 66.0251 7.54191C65.9631 7.38452 65.8601 7.24624 65.7266 7.14117C65.5931 7.0361 65.434 6.96798 65.2653 6.94376L59.1144 6.05858L56.3649 0.533373C56.2853 0.37329 56.1621 0.238487 56.0093 0.144223C55.8565 0.0499595 55.6801 0 55.5001 0C55.3201 0 55.1437 0.0499595 54.9908 0.144223C54.838 0.238487 54.7148 0.37329 54.6353 0.533373L51.8847 6.05858Z" fill="#EFB900"/>
<path d="M74.4343 6.05858L68.4453 6.94281L68.3392 6.96479C68.1786 7.0082 68.0323 7.09423 67.915 7.2141C67.7978 7.33396 67.7138 7.48337 67.6718 7.64706C67.6298 7.81074 67.6313 7.98285 67.6759 8.1458C67.7206 8.30875 67.807 8.45671 67.9262 8.57456L72.2649 12.8752L71.2417 18.9501L71.2295 19.0552C71.2197 19.2244 71.2542 19.3931 71.3295 19.5442C71.4047 19.6953 71.5181 19.8233 71.6579 19.9151C71.7977 20.0069 71.959 20.0592 72.1252 20.0667C72.2914 20.0742 72.4566 20.0365 72.6038 19.9576L77.9601 17.0899L83.3042 19.9576L83.3981 20.0016C83.5531 20.0638 83.7214 20.0828 83.886 20.0568C84.0506 20.0308 84.2054 19.9607 84.3346 19.8537C84.4637 19.7467 84.5626 19.6066 84.6211 19.4478C84.6796 19.289 84.6955 19.1172 84.6672 18.9501L83.6431 12.8752L87.9837 8.5736L88.057 8.49235C88.1615 8.36117 88.2301 8.20409 88.2557 8.03714C88.2813 7.87018 88.2629 7.6993 88.2025 7.54191C88.1421 7.38452 88.0419 7.24624 87.9119 7.14117C87.782 7.0361 87.627 6.96798 87.4627 6.94376L81.4737 6.05858L78.7965 0.533373C78.7191 0.37329 78.5991 0.238487 78.4503 0.144223C78.3015 0.0499595 78.1297 0 77.9545 0C77.7792 0 77.6075 0.0499595 77.4587 0.144223C77.3099 0.238487 77.1899 0.37329 77.1125 0.533373L74.4343 6.05858Z" fill="#EFB900"/>
<path d="M96.7939 6.05858L90.643 6.94281L90.5341 6.96479C90.3692 7.0082 90.2188 7.09423 90.0984 7.2141C89.978 7.33396 89.8918 7.48337 89.8487 7.64706C89.8056 7.81074 89.807 7.98285 89.8529 8.1458C89.8988 8.30875 89.9875 8.45671 90.1099 8.57456L94.5659 12.8752L93.5151 18.9501L93.5025 19.0552C93.4924 19.2244 93.5278 19.3931 93.6052 19.5442C93.6825 19.6953 93.7989 19.8233 93.9425 19.9151C94.0861 20.0069 94.2517 20.0592 94.4224 20.0667C94.5931 20.0742 94.7627 20.0365 94.914 19.9576L100.415 17.0899L105.904 19.9576L106 20.0016C106.159 20.0638 106.332 20.0828 106.501 20.0568C106.67 20.0308 106.829 19.9607 106.962 19.8537C107.094 19.7467 107.196 19.6066 107.256 19.4478C107.316 19.289 107.332 19.1172 107.303 18.9501L106.252 12.8752L110.71 8.5736L110.785 8.49235C110.892 8.36117 110.963 8.20409 110.989 8.03714C111.015 7.87018 110.996 7.6993 110.934 7.54191C110.872 7.38452 110.769 7.24624 110.636 7.14117C110.502 7.0361 110.343 6.96798 110.174 6.94376L104.024 6.05858L101.274 0.533373C101.194 0.37329 101.071 0.238487 100.918 0.144223C100.766 0.0499595 100.589 0 100.409 0C100.229 0 100.053 0.0499595 99.9 0.144223C99.7472 0.238487 99.624 0.37329 99.5445 0.533373L96.7939 6.05858Z" fill="#EFB900"/>
</svg>
