<svg width="54" height="54" viewBox="0 0 54 54" fill="none" xmlns="http://www.w3.org/2000/svg">
<path d="M30.9836 46.9181H29.2131V38.2427C29.2131 38.0079 29.1198 37.7827 28.9538 37.6167C28.7878 37.4507 28.5626 37.3574 28.3279 37.3574C28.0931 37.3574 27.8679 37.4507 27.7019 37.6167C27.5359 37.7827 27.4426 38.0079 27.4426 38.2427V46.9181H4.42623V29.2132H11.7915C12.0263 29.2132 12.2514 29.1199 12.4174 28.9539C12.5835 28.7879 12.6767 28.5627 12.6767 28.3279C12.6767 28.0931 12.5835 27.868 12.4174 27.7019C12.2514 27.5359 12.0263 27.4427 11.7915 27.4427H3.54098C3.3062 27.4427 3.08104 27.5359 2.91502 27.7019C2.749 27.868 2.65574 28.0931 2.65574 28.3279V46.9181H0.885246C0.650464 46.9181 0.425298 47.0113 0.259282 47.1774C0.0932667 47.3434 0 47.5685 0 47.8033V49.5738C0 50.7477 0.466334 51.8735 1.29641 52.7036C2.12649 53.5337 3.25232 54 4.42623 54H27.4426C28.6165 54 29.7424 53.5337 30.5724 52.7036C31.4025 51.8735 31.8689 50.7477 31.8689 49.5738V47.8033C31.8689 47.5685 31.7756 47.3434 31.6096 47.1774C31.4436 47.0113 31.2184 46.9181 30.9836 46.9181ZM30.0984 49.5738C30.0984 50.2782 29.8186 50.9537 29.3205 51.4517C28.8225 51.9497 28.147 52.2295 27.4426 52.2295H25.6721V51.3443C25.6721 51.1095 25.5789 50.8844 25.4128 50.7183C25.2468 50.5523 25.0217 50.4591 24.7869 50.4591C24.5521 50.4591 24.3269 50.5523 24.1609 50.7183C23.9949 50.8844 23.9016 51.1095 23.9016 51.3443V52.2295H7.96721V51.3443C7.96721 51.1095 7.87395 50.8844 7.70793 50.7183C7.54191 50.5523 7.31675 50.4591 7.08197 50.4591C6.84719 50.4591 6.62202 50.5523 6.456 50.7183C6.28999 50.8844 6.19672 51.1095 6.19672 51.3443V52.2295H4.42623C3.72188 52.2295 3.04639 51.9497 2.54834 51.4517C2.05029 50.9537 1.77049 50.2782 1.77049 49.5738V48.6886H30.0984V49.5738ZM46.0328 6.19676H47.8033C48.0381 6.19676 48.2632 6.10349 48.4292 5.93748C48.5953 5.77146 48.6885 5.5463 48.6885 5.31152C48.6885 5.07673 48.5953 4.85157 48.4292 4.68555C48.2632 4.51954 48.0381 4.42627 47.8033 4.42627H46.0328C45.3284 4.42627 44.6529 4.70607 44.1549 5.20412C43.6568 5.70216 43.377 6.37766 43.377 7.08201V7.96725H42.4918C42.257 7.96725 42.0319 8.06052 41.8658 8.22654C41.6998 8.39255 41.6066 8.61772 41.6066 8.8525C41.6066 9.08728 41.6998 9.31245 41.8658 9.47846C42.0319 9.64448 42.257 9.73774 42.4918 9.73774H43.377V12.3935C43.377 12.6283 43.4703 12.8534 43.6363 13.0194C43.8023 13.1855 44.0275 13.2787 44.2623 13.2787C44.4971 13.2787 44.7222 13.1855 44.8883 13.0194C45.0543 12.8534 45.1475 12.6283 45.1475 12.3935V9.73774H46.0328C46.2676 9.73774 46.4927 9.64448 46.6587 9.47846C46.8248 9.31245 46.918 9.08728 46.918 8.8525C46.918 8.61772 46.8248 8.39255 46.6587 8.22654C46.4927 8.06052 46.2676 7.96725 46.0328 7.96725H45.1475V7.08201C45.1475 6.84723 45.2408 6.62206 45.4068 6.45604C45.5728 6.29003 45.798 6.19676 46.0328 6.19676Z" fill="#1BAAAE"/>
<path d="M50.4584 0.885254H39.8354C39.1311 0.885254 38.4556 1.16505 37.9575 1.6631C37.4595 2.16115 37.1797 2.83665 37.1797 3.54099V5.31148C37.1797 5.54627 37.273 5.77143 37.439 5.93745C37.605 6.10346 37.8302 6.19673 38.0649 6.19673C38.2997 6.19673 38.5249 6.10346 38.6909 5.93745C38.8569 5.77143 38.9502 5.54627 38.9502 5.31148V3.54099C38.9502 3.30621 39.0434 3.08104 39.2095 2.91503C39.3755 2.74901 39.6006 2.65575 39.8354 2.65575H50.4584C50.6932 2.65575 50.9183 2.74901 51.0843 2.91503C51.2504 3.08104 51.3436 3.30621 51.3436 3.54099V14.1639C51.3436 14.3987 51.2504 14.6239 51.0843 14.7899C50.9183 14.9559 50.6932 15.0492 50.4584 15.0492H39.8354C39.6006 15.0492 39.3755 14.9559 39.2095 14.7899C39.0434 14.6239 38.9502 14.3987 38.9502 14.1639V8.85247C38.9502 8.61768 38.8569 8.39252 38.6909 8.2265C38.5249 8.06049 38.2997 7.96722 38.0649 7.96722C37.8302 7.96722 37.605 8.06049 37.439 8.2265C37.273 8.39252 37.1797 8.61768 37.1797 8.85247V14.1639C37.1797 14.8683 37.4595 15.5438 37.9575 16.0418C38.4556 16.5399 39.1311 16.8197 39.8354 16.8197H50.4584C51.1627 16.8197 51.8382 16.5399 52.3363 16.0418C52.8343 15.5438 53.1141 14.8683 53.1141 14.1639V3.54099C53.1141 2.83665 52.8343 2.16115 52.3363 1.6631C51.8382 1.16505 51.1627 0.885254 50.4584 0.885254ZM41.6059 36.2951C41.6059 36.9954 41.8136 37.68 42.2027 38.2624C42.5918 38.8447 43.1448 39.2985 43.7918 39.5665C44.4389 39.8345 45.1508 39.9047 45.8377 39.768C46.5246 39.6314 47.1555 39.2942 47.6508 38.7989C48.146 38.3037 48.4832 37.6728 48.6198 36.9859C48.7565 36.299 48.6864 35.587 48.4183 34.94C48.1503 34.293 47.6965 33.74 47.1142 33.3509C46.5319 32.9618 45.8472 32.7541 45.1469 32.7541C44.2078 32.7541 43.3071 33.1272 42.643 33.7912C41.979 34.4553 41.6059 35.356 41.6059 36.2951ZM46.9174 36.2951C46.9174 36.6453 46.8136 36.9876 46.619 37.2787C46.4245 37.5699 46.148 37.7968 45.8244 37.9308C45.5009 38.0648 45.1449 38.0999 44.8015 38.0316C44.4581 37.9632 44.1426 37.7946 43.895 37.547C43.6474 37.2994 43.4787 36.9839 43.4104 36.6405C43.3421 36.2971 43.3772 35.9411 43.5112 35.6175C43.6452 35.294 43.8721 35.0175 44.1633 34.823C44.4544 34.6284 44.7967 34.5246 45.1469 34.5246C45.6165 34.5246 46.0668 34.7111 46.3988 35.0432C46.7309 35.3752 46.9174 35.8255 46.9174 36.2951Z" fill="#1BAAAE"/>
<path d="M50.4582 28.3279H39.8353C39.1309 28.3279 38.4554 28.6077 37.9574 29.1058C37.4593 29.6038 37.1795 30.2793 37.1795 30.9837V41.6066C37.1795 42.3109 37.4593 42.9864 37.9574 43.4845C38.4554 43.9825 39.1309 44.2623 39.8353 44.2623H50.4582C51.1626 44.2623 51.8381 43.9825 52.3361 43.4845C52.8342 42.9864 53.114 42.3109 53.114 41.6066V39.8361C53.114 39.6013 53.0207 39.3762 52.8547 39.2101C52.6887 39.0441 52.4635 38.9509 52.2287 38.9509C51.9939 38.9509 51.7688 39.0441 51.6027 39.2101C51.4367 39.3762 51.3435 39.6013 51.3435 39.8361V41.6066C51.3435 41.8414 51.2502 42.0666 51.0842 42.2326C50.9182 42.3986 50.693 42.4918 50.4582 42.4918H39.8353C39.6005 42.4918 39.3753 42.3986 39.2093 42.2326C39.0433 42.0666 38.95 41.8414 38.95 41.6066V30.9837C38.95 30.7489 39.0433 30.5237 39.2093 30.3577C39.3753 30.1917 39.6005 30.0984 39.8353 30.0984H50.4582C50.693 30.0984 50.9182 30.1917 51.0842 30.3577C51.2502 30.5237 51.3435 30.7489 51.3435 30.9837V36.2951C51.3435 36.5299 51.4367 36.7551 51.6027 36.9211C51.7688 37.0871 51.9939 37.1804 52.2287 37.1804C52.4635 37.1804 52.6887 37.0871 52.8547 36.9211C53.0207 36.7551 53.114 36.5299 53.114 36.2951V30.9837C53.114 30.2793 52.8342 29.6038 52.3361 29.1058C51.8381 28.6077 51.1626 28.3279 50.4582 28.3279ZM19.8907 11.3755C20.0316 11.4628 20.1941 11.5088 20.3599 11.5082C20.4984 11.5074 20.6349 11.4741 20.7582 11.4109L26.0697 8.75513C26.2147 8.68084 26.3364 8.56798 26.4214 8.42896C26.5063 8.28995 26.5513 8.13019 26.5513 7.96726C26.5513 7.80433 26.5063 7.64457 26.4214 7.50556C26.3364 7.36654 26.2147 7.25368 26.0697 7.17939L20.7582 4.52365C20.6235 4.45575 20.4736 4.42342 20.3228 4.42973C20.172 4.43605 20.0254 4.4808 19.8968 4.55974C19.7682 4.63868 19.6619 4.74918 19.588 4.88076C19.5141 5.01234 19.4751 5.16062 19.4746 5.31152V10.623C19.4743 10.7734 19.5124 10.9215 19.5852 11.0531C19.658 11.1848 19.7631 11.2957 19.8907 11.3755ZM21.2451 6.74562L23.6884 7.96726L21.2451 9.1889V6.74562Z" fill="#1BAAAE"/>
<path d="M22.1311 15.9344C23.7069 15.9344 25.2473 15.4672 26.5575 14.5917C27.8677 13.7163 28.8889 12.472 29.4919 11.0161C30.0949 9.56032 30.2527 7.95838 29.9453 6.41289C29.6379 4.8674 28.879 3.44778 27.7648 2.33355C26.6506 1.21931 25.231 0.460508 23.6855 0.153091C22.14 -0.154325 20.538 0.00345206 19.0822 0.606472C17.6264 1.20949 16.3821 2.23067 15.5066 3.54087C14.6312 4.85107 14.1639 6.39145 14.1639 7.96722C14.1639 10.0803 15.0033 12.1067 16.4975 13.6009C17.9916 15.095 20.0181 15.9344 22.1311 15.9344ZM22.1311 1.7705C23.3567 1.7705 24.5548 2.13393 25.5739 2.81483C26.5929 3.49574 27.3872 4.46353 27.8562 5.59583C28.3252 6.72814 28.4479 7.97409 28.2088 9.17614C27.9697 10.3782 27.3795 11.4823 26.5129 12.349C25.6463 13.2156 24.5421 13.8058 23.3401 14.0449C22.138 14.284 20.8921 14.1613 19.7598 13.6922C18.6275 13.2232 17.6597 12.429 16.9788 11.4099C16.2979 10.3909 15.9344 9.19281 15.9344 7.96722C15.9344 6.32374 16.5873 4.74758 17.7494 3.58547C18.9115 2.42336 20.4877 1.7705 22.1311 1.7705ZM30.9836 19.4754C31.121 19.4754 31.2566 19.4434 31.3795 19.382C31.5024 19.3205 31.6093 19.2313 31.6918 19.1213L34.3475 15.5803C34.4884 15.3925 34.5489 15.1564 34.5157 14.924C34.4825 14.6916 34.3583 14.4819 34.1705 14.341C33.9827 14.2001 33.7466 14.1396 33.5141 14.1728C33.2817 14.206 33.072 14.3302 32.9311 14.518L30.2754 18.059C30.1345 18.2468 30.0741 18.4829 30.1073 18.7154C30.1405 18.9478 30.2646 19.1575 30.4525 19.2984C30.6057 19.4133 30.7921 19.4754 30.9836 19.4754ZM32.9311 22.6623C33.0136 22.7722 33.1205 22.8615 33.2434 22.9229C33.3664 22.9844 33.5019 23.0164 33.6393 23.0164C33.8309 23.0164 34.0173 22.9543 34.1705 22.8393L37.7115 20.1836C37.8993 20.0427 38.0235 19.833 38.0567 19.6006C38.0899 19.3682 38.0294 19.1321 37.8885 18.9443C37.7477 18.7564 37.5379 18.6323 37.3055 18.5991C37.0731 18.5659 36.837 18.6263 36.6492 18.7672L33.1082 21.423C32.9204 21.5638 32.7962 21.7735 32.763 22.006C32.7298 22.2384 32.7903 22.4745 32.9311 22.6623ZM41.6066 24.6098C41.5855 24.4925 41.541 24.3806 41.4756 24.2808C41.4103 24.1811 41.3255 24.0956 41.2262 24.0295C41.127 23.9633 41.0155 23.9179 40.8983 23.896C40.7811 23.874 40.6607 23.8759 40.5443 23.9016L36.118 24.7869C36.0018 24.7985 35.889 24.8329 35.786 24.8882C35.683 24.9434 35.592 25.0183 35.518 25.1088C35.3686 25.2914 35.2978 25.5259 35.3213 25.7607C35.3448 25.9954 35.4606 26.2113 35.6432 26.3607C35.8258 26.5101 36.0603 26.5809 36.2951 26.5574H36.4721L40.8984 25.6721C41.0157 25.6511 41.1276 25.6066 41.2273 25.5412C41.3271 25.4759 41.4126 25.391 41.4787 25.2918C41.5449 25.1926 41.5903 25.0811 41.6122 24.9639C41.6342 24.8467 41.6323 24.7263 41.6066 24.6098ZM0.885246 24.7869H11.5082C11.743 24.7869 11.9681 24.6936 12.1342 24.5276C12.3002 24.3616 12.3934 24.1364 12.3934 23.9016V9.73771C12.3934 9.50293 12.3002 9.27776 12.1342 9.11175C11.9681 8.94573 11.743 8.85246 11.5082 8.85246H0.885246C0.650464 8.85246 0.425298 8.94573 0.259282 9.11175C0.0932667 9.27776 0 9.50293 0 9.73771V23.9016C0 24.1364 0.0932667 24.3616 0.259282 24.5276C0.425298 24.6936 0.650464 24.7869 0.885246 24.7869ZM1.77049 10.623H10.6229V23.0164H1.77049V10.623Z" fill="#1BAAAE"/>
<path d="M7.96724 12.3934H6.19675C5.96197 12.3934 5.73681 12.4867 5.57079 12.6527C5.40477 12.8187 5.31151 13.0439 5.31151 13.2787C5.31151 13.5135 5.40477 13.7386 5.57079 13.9046C5.73681 14.0707 5.96197 14.1639 6.19675 14.1639H7.96724C8.20203 14.1639 8.42719 14.0707 8.59321 13.9046C8.75922 13.7386 8.85249 13.5135 8.85249 13.2787C8.85249 13.0439 8.75922 12.8187 8.59321 12.6527C8.42719 12.4867 8.20203 12.3934 7.96724 12.3934ZM7.96724 15.9344H4.42626C4.19148 15.9344 3.96631 16.0277 3.8003 16.1937C3.63428 16.3597 3.54102 16.5849 3.54102 16.8197C3.54102 17.0544 3.63428 17.2796 3.8003 17.4456C3.96631 17.6116 4.19148 17.7049 4.42626 17.7049H7.96724C8.20203 17.7049 8.42719 17.6116 8.59321 17.4456C8.75922 17.2796 8.85249 17.0544 8.85249 16.8197C8.85249 16.5849 8.75922 16.3597 8.59321 16.1937C8.42719 16.0277 8.20203 15.9344 7.96724 15.9344ZM7.96724 19.4754H4.42626C4.19148 19.4754 3.96631 19.5687 3.8003 19.7347C3.63428 19.9007 3.54102 20.1259 3.54102 20.3606C3.54102 20.5954 3.63428 20.8206 3.8003 20.9866C3.96631 21.1526 4.19148 21.2459 4.42626 21.2459H7.96724C8.20203 21.2459 8.42719 21.1526 8.59321 20.9866C8.75922 20.8206 8.85249 20.5954 8.85249 20.3606C8.85249 20.1259 8.75922 19.9007 8.59321 19.7347C8.42719 19.5687 8.20203 19.4754 7.96724 19.4754ZM30.2046 24.5213C30.1465 24.4202 30.069 24.3315 29.9766 24.2603C29.8842 24.1891 29.7787 24.1368 29.6661 24.1064C29.5534 24.0759 29.4359 24.068 29.3203 24.083C29.2046 24.098 29.093 24.1356 28.9918 24.1938C28.8907 24.2519 28.802 24.3294 28.7308 24.4218C28.6596 24.5142 28.6073 24.6197 28.5769 24.7323C28.5465 24.8449 28.5385 24.9624 28.5535 25.0781C28.5685 25.1938 28.6062 25.3054 28.6643 25.4065L32.5682 32.161L18.4043 37.4724H18.2715L15.9699 38.8003L14.4384 39.6856C14.2368 39.8021 14.0141 39.8778 13.7832 39.9081C13.5523 39.9385 13.3177 39.923 13.0928 39.8626C12.641 39.7405 12.2559 39.4445 12.0217 39.0393L10.2512 35.9764C10.0429 35.5756 9.99562 35.1105 10.119 34.676C10.2425 34.2416 10.5272 33.8707 10.9151 33.6393L13.9781 31.8688L16.1912 35.702C16.2692 35.837 16.3815 35.9491 16.5167 36.0269C16.652 36.1046 16.8054 36.1452 16.9613 36.1446C17.117 36.1452 17.2701 36.1047 17.4052 36.0273C17.5403 35.9499 17.6525 35.8382 17.7306 35.7035C17.8087 35.5688 17.85 35.4159 17.8501 35.2602C17.8503 35.1045 17.8094 34.9515 17.7315 34.8167L15.4476 30.8685L26.5574 21.7062L26.9204 22.3347C26.9785 22.4359 27.056 22.5246 27.1484 22.5958C27.2408 22.667 27.3463 22.7193 27.4589 22.7497C27.5715 22.7801 27.689 22.788 27.8047 22.773C27.9204 22.758 28.032 22.7204 28.1331 22.6623C28.2343 22.6042 28.323 22.5267 28.3942 22.4343C28.4654 22.3419 28.5177 22.2363 28.5481 22.1237C28.5785 22.0111 28.5864 21.8936 28.5714 21.7779C28.5564 21.6622 28.5188 21.5506 28.4607 21.4495L27.5754 19.918C27.5106 19.8071 27.4223 19.7116 27.3168 19.6383C27.2114 19.5649 27.0912 19.5154 26.9646 19.4931C26.8374 19.4691 26.7064 19.4733 26.581 19.5055C26.4556 19.5376 26.3388 19.5968 26.2387 19.679L13.8453 29.8947L10.0741 32.0724C9.39737 32.4666 8.87039 33.0741 8.57566 33.7997C8.28093 34.5253 8.23507 35.3282 8.44528 36.0826L7.56003 36.5872C7.10391 36.8491 6.73584 37.2406 6.50249 37.712C6.26914 38.1834 6.18101 38.7134 6.24928 39.2349C6.31756 39.7565 6.53915 40.246 6.88598 40.6414C7.2328 41.0368 7.68924 41.3204 8.19741 41.4561C8.42269 41.5157 8.65485 41.5455 8.8879 41.5446C9.3536 41.5427 9.81094 41.4207 10.2158 41.1905L11.101 40.6859C11.5263 41.1252 12.0611 41.443 12.6502 41.6065C12.9527 41.6912 13.2656 41.7329 13.5797 41.7305C14.2019 41.7319 14.8132 41.5669 15.3502 41.2524L16.1204 40.8098L17.8908 43.8816C18.2427 44.49 18.8213 44.934 19.5 45.1166C20.1786 45.2991 20.902 45.2052 21.5115 44.8554C21.8139 44.6812 22.079 44.449 22.2916 44.1723C22.5042 43.8955 22.6602 43.5796 22.7507 43.2425C22.8411 42.9054 22.8642 42.5538 22.8187 42.2078C22.7731 41.8617 22.6598 41.5281 22.4853 41.2259L20.8741 38.4197L34.1528 33.4357C34.2732 33.3905 34.3823 33.3195 34.4725 33.2278C34.5627 33.136 34.6319 33.0257 34.6751 32.9046C34.7182 32.7848 34.735 32.6572 34.7243 32.5304C34.7136 32.4036 34.6757 32.2806 34.6131 32.1698L30.2046 24.5213ZM9.29511 39.6502C9.1943 39.7084 9.08299 39.7462 8.96754 39.7614C8.85209 39.7766 8.73478 39.7689 8.62233 39.7387C8.39552 39.6798 8.20134 39.5333 8.08233 39.3315C8.02405 39.2307 7.98623 39.1193 7.97104 39.0039C7.95585 38.8884 7.96358 38.7711 7.9938 38.6587C8.02402 38.5456 8.07636 38.4397 8.14777 38.347C8.21919 38.2543 8.30827 38.1767 8.40987 38.1187L9.18003 37.6761L10.0653 39.2075L9.29511 39.6502ZM20.9449 42.1288C21.0032 42.2296 21.041 42.341 21.0562 42.4564C21.0714 42.5719 21.0637 42.6892 21.0335 42.8016C20.9703 43.0267 20.8208 43.2176 20.6174 43.3328C20.4152 43.4489 20.1753 43.4806 19.9499 43.4209C19.7245 43.3613 19.5317 43.2151 19.4135 43.0141L17.643 39.9423L19.1125 39.1013H19.1833L20.9449 42.1288Z" fill="#1BAAAE"/>
</svg>
