<svg width="145" height="27" viewBox="0 0 145 27" fill="none" xmlns="http://www.w3.org/2000/svg">
<path d="M12.2152 18.1967H18.0446L9.45541 8.73682H3.62598L12.2152 18.1967Z" fill="#959595"/>
<path d="M22.9447 8.6925H17.1152L25.7044 18.1524H31.5338L22.9447 8.6925Z" fill="#959595"/>
<path d="M9.97202 7.5708H0.984375L11.6987 19.3625H20.6864L9.97202 7.5708ZM3.62607 8.73669H9.45549L18.0447 18.1966H12.2152L3.62607 8.73669Z" fill="#959595"/>
<path d="M19.0187 0L9.97203 7.11338H0.984375L2.96195 5.56378C7.53695 1.96282 13.204 0 19.0187 0Z" fill="#959595"/>
<path d="M23.4603 7.52661H14.4727L25.187 19.3183H34.1746L23.4603 7.52661ZM17.1143 8.6925H22.9438L31.533 18.1524H25.7035L17.1143 8.6925Z" fill="#959595"/>
<path d="M34.175 19.7758L32.1974 21.3254C29.9099 23.1258 27.3567 24.5131 24.6413 25.4576C21.9258 26.4021 19.0627 26.8891 16.1406 26.8891L25.1873 19.7758H34.175Z" fill="#959595"/>
<path d="M46.3244 16.1107C45.8414 16.5937 45.1389 16.8571 44.3924 16.8571C42.8117 16.8571 41.4945 15.5838 41.4945 14.0031C41.4945 12.4224 42.7678 11.149 44.3924 11.149C45.1389 11.149 45.8414 11.4564 46.3244 11.9394L47.6856 10.5782C46.8074 9.74398 45.6658 9.26099 44.3924 9.26099C41.7579 9.26099 39.6064 11.4125 39.6064 14.047C39.6064 16.6815 41.7579 18.833 44.3924 18.833C45.6658 18.833 46.8074 18.35 47.6856 17.5157L46.3244 16.1107Z" fill="#959595"/>
<path d="M60.288 9.21704C57.6535 9.21704 55.502 11.3685 55.502 14.003C55.502 16.6375 57.6535 18.789 60.288 18.789C62.9224 18.789 65.0739 16.6375 65.0739 14.003C65.0739 11.3685 62.9224 9.21704 60.288 9.21704ZM60.288 16.901C58.7073 16.901 57.39 15.6276 57.39 14.003C57.39 12.4223 58.6633 11.149 60.288 11.149C61.8686 11.149 63.142 12.4223 63.142 14.003C63.142 15.5837 61.8247 16.901 60.288 16.901Z" fill="#959595"/>
<path d="M78.3777 16.2424L75.5676 9.21704H73.5039V18.789H75.4359V14.003L77.3239 18.789H79.3876L81.3196 14.003V18.789H83.2076V9.21704H81.1439L78.3777 16.2424Z" fill="#959595"/>
<path d="M94.36 9.21704H91.6816V18.789H93.5697V14.969H94.36C95.9407 14.969 97.2141 13.6957 97.2141 12.115C97.2141 10.5343 95.9407 9.21704 94.36 9.21704ZM94.36 13.0371H93.5697V11.149H94.36C94.8869 11.149 95.326 11.5881 95.326 12.115C95.326 12.6419 94.8869 13.0371 94.36 13.0371Z" fill="#959595"/>
<path d="M107.883 9.21704L104.414 18.789H106.434L107.4 16.1106H110.342L111.308 18.789H113.327L109.859 9.21704H107.883ZM108.102 14.2226L108.893 12.0711L109.683 14.2226H108.102Z" fill="#959595"/>
<path d="M129.531 9.21704H127.643V15.6276L123.779 9.21704H121.584V18.789H123.472V12.4223L127.292 18.789H129.531V9.21704Z" fill="#959595"/>
<path d="M142.133 18.789V14.2226L144.636 9.21704H142.484L141.211 11.8954L139.85 9.21704H137.742L140.245 14.2226V18.789H142.133Z" fill="#959595"/>
<path d="M39.5635 23.4432H40.6612V26.9558H41.2759V23.4432H42.4175V22.9163H39.5635V23.4432Z" fill="#959595"/>
<path d="M46.8952 22.9163L45.4023 26.9558H46.061L46.3683 26.0337H47.9051L48.2125 26.9558H48.8711L47.3782 22.9163H46.8952ZM46.544 25.5068L47.1148 23.7505L47.6856 25.5068H46.544Z" fill="#959595"/>
<path d="M53.9216 25.2875H54.7559V25.507C54.7559 25.7705 54.6681 25.9461 54.5363 26.1217C54.3607 26.2974 54.1851 26.3852 53.9655 26.3852C53.8338 26.3852 53.7021 26.3413 53.6143 26.2974C53.5265 26.2535 53.4386 26.1656 53.3508 26.0778C53.263 25.99 53.2191 25.8583 53.1752 25.7266C53.1313 25.5948 53.1313 25.3314 53.1313 24.9362C53.1313 24.541 53.1313 24.2776 53.1752 24.1019C53.2191 23.9702 53.263 23.8385 53.3508 23.7507C53.3947 23.6629 53.4825 23.619 53.6143 23.5311C53.7021 23.4872 53.8338 23.4433 53.9655 23.4433C54.1412 23.4433 54.3168 23.4872 54.4485 23.619C54.5803 23.7507 54.6681 23.8824 54.712 24.0141H55.3706C55.3267 23.6629 55.1511 23.3994 54.8876 23.1799C54.6242 22.9603 54.3168 22.8286 53.9216 22.8286C53.6143 22.8286 53.3508 22.9164 53.1313 23.0482C52.9117 23.1799 52.7361 23.3555 52.6483 23.5311C52.6044 23.619 52.5605 23.7507 52.5166 23.9263C52.4727 24.102 52.4727 24.4093 52.4727 24.8923C52.4727 25.3753 52.4727 25.6826 52.5166 25.8144C52.5166 25.9022 52.5605 25.99 52.5605 26.0339C52.6044 26.0778 52.6044 26.1656 52.6483 26.2095C52.7361 26.3852 52.9117 26.5608 53.1313 26.6925C53.3508 26.8243 53.6143 26.9121 53.9216 26.9121C54.3168 26.9121 54.6681 26.7804 54.9315 26.473C55.195 26.2095 55.3267 25.8583 55.3267 25.4631V24.6288H53.8777V25.2875H53.9216Z" fill="#959595"/>
<path d="M60.114 22.9163H59.4993V26.9558H62.0899V26.385H60.114V22.9163Z" fill="#959595"/>
<path d="M66.6999 22.9163H66.0852V26.9558H66.6999V22.9163Z" fill="#959595"/>
<path d="M73.4169 25.7703H73.373L71.5727 22.9163H70.958V26.9558H71.5727V24.0579H71.6166L73.4169 26.9558H74.0316V22.9163H73.4169V25.7703Z" fill="#959595"/>
<path d="M78.291 26.9558H80.8816V26.385H78.9057V25.1556H80.5742V24.6287H78.9057V23.4871H80.8816V22.9163H78.291V26.9558Z" fill="#959595"/>
<path d="M90.9802 25.2875H91.8145V25.507C91.8145 25.7705 91.7267 25.9461 91.5949 26.1217C91.4193 26.2974 91.2437 26.3852 91.0241 26.3852C90.8924 26.3852 90.7607 26.3413 90.6729 26.2974C90.585 26.2535 90.4972 26.1656 90.4094 26.0778C90.3216 25.99 90.2777 25.8583 90.2338 25.7266C90.1899 25.5948 90.1899 25.3314 90.1899 24.9362C90.1899 24.541 90.1899 24.2776 90.2338 24.1019C90.2777 23.9702 90.3216 23.8385 90.4094 23.7507C90.4533 23.6629 90.5411 23.619 90.6729 23.5311C90.7607 23.4872 90.8924 23.4433 91.0241 23.4433C91.1998 23.4433 91.3754 23.4872 91.5071 23.619C91.6388 23.7507 91.7267 23.8824 91.7706 24.0141H92.4292C92.3853 23.6629 92.2097 23.3994 91.9462 23.1799C91.6828 22.9603 91.3754 22.8286 90.9802 22.8286C90.6729 22.8286 90.4094 22.9164 90.1899 23.0482C89.9703 23.1799 89.7947 23.3555 89.7069 23.5311C89.663 23.619 89.6191 23.7507 89.5752 23.9263C89.5312 24.102 89.5312 24.4093 89.5312 24.8923C89.5312 25.3753 89.5312 25.6826 89.5752 25.8144C89.5752 25.9022 89.6191 25.99 89.6191 26.0339C89.663 26.0778 89.663 26.1656 89.7069 26.2095C89.7947 26.3852 89.9703 26.5608 90.1899 26.6925C90.4094 26.8243 90.6729 26.9121 90.9802 26.9121C91.3754 26.9121 91.7267 26.7804 91.9901 26.473C92.2536 26.2095 92.3853 25.8583 92.3853 25.4631V24.6288H90.9363V25.2875H90.9802Z" fill="#959595"/>
<path d="M99.1032 23.5751C99.0154 23.3995 98.8397 23.2238 98.6202 23.0921C98.4006 22.9604 98.1372 22.8726 97.8298 22.8726C97.5225 22.8726 97.259 22.9604 97.0395 23.0921C96.8199 23.2238 96.6443 23.3995 96.5565 23.5751C96.5126 23.6629 96.4687 23.7946 96.4248 23.9703C96.3809 24.1459 96.3809 24.4533 96.3809 24.9363C96.3809 25.4192 96.3809 25.7266 96.4248 25.8583C96.4248 25.9461 96.4687 26.034 96.4687 26.0779C96.5126 26.1218 96.5126 26.2096 96.5565 26.2535C96.6443 26.4291 96.8199 26.6048 97.0395 26.7365C97.259 26.8682 97.5225 26.956 97.8298 26.956C98.1372 26.956 98.4006 26.8682 98.6202 26.7365C98.8397 26.6048 98.9715 26.4291 99.1032 26.2535C99.191 26.1657 99.2349 26.034 99.2349 25.8583C99.2788 25.6827 99.2788 25.3753 99.2788 24.9363C99.2788 24.4533 99.2788 24.1459 99.2349 23.9703C99.2349 23.8385 99.191 23.7068 99.1032 23.5751ZM98.6641 25.7266C98.6202 25.8583 98.5763 25.99 98.4885 26.0779C98.4445 26.1657 98.3567 26.2096 98.225 26.2974C98.1372 26.3413 98.0055 26.3852 97.8298 26.3852C97.6981 26.3852 97.5664 26.3413 97.4786 26.2974C97.3907 26.2535 97.3029 26.1657 97.2151 26.0779C97.1273 25.99 97.0834 25.8583 97.0395 25.7266C96.9956 25.5949 96.9956 25.3314 96.9956 24.9363C96.9956 24.5411 96.9956 24.2776 97.0395 24.102C97.0834 23.9703 97.1273 23.8385 97.2151 23.7507C97.259 23.6629 97.3468 23.619 97.4786 23.5312C97.5664 23.4873 97.6981 23.4434 97.8298 23.4434C97.9616 23.4434 98.0933 23.4873 98.225 23.5312C98.3128 23.5751 98.4006 23.6629 98.4885 23.7507C98.5763 23.8385 98.6202 23.9703 98.6641 24.102C98.708 24.2337 98.708 24.4972 98.708 24.9363C98.6641 25.3314 98.6641 25.5949 98.6641 25.7266Z" fill="#959595"/>
<path d="M103.451 26.9558H106.042V26.385H104.066V25.1556H105.734V24.6287H104.066V23.4871H106.042V22.9163H103.451V26.9558Z" fill="#959595"/>
<path d="M111.529 24.6288C111.353 24.5849 111.177 24.5849 111.09 24.5849C110.87 24.541 110.738 24.4971 110.651 24.3654C110.563 24.2776 110.519 24.1459 110.519 24.058C110.519 23.8824 110.607 23.7068 110.738 23.619C110.87 23.5311 111.002 23.4872 111.221 23.4872C111.573 23.4872 111.924 23.619 112.231 23.7946L112.583 23.2677C112.231 23.0042 111.792 22.8725 111.265 22.8286C110.826 22.8286 110.519 22.9603 110.299 23.136C110.08 23.3555 109.948 23.619 109.948 24.0141C109.948 24.3215 110.036 24.541 110.212 24.7606C110.387 24.9801 110.651 25.0679 111.002 25.1558C111.177 25.1997 111.397 25.1997 111.529 25.2436C111.88 25.2875 112.056 25.507 112.056 25.7705C112.056 26.1217 111.792 26.3413 111.265 26.3413C110.826 26.3413 110.431 26.2095 110.124 25.9461L109.729 26.4291C110.168 26.7804 110.694 26.9999 111.265 26.9999C112.187 26.9999 112.67 26.6047 112.67 25.8144C112.67 25.507 112.583 25.2875 112.407 25.0679C112.187 24.8045 111.924 24.6728 111.529 24.6288Z" fill="#959595"/>
<path d="M123.692 24.6287H122.112V22.9163H121.497V26.9558H122.112V25.1556H123.692V26.9558H124.307V22.9163H123.692V24.6287Z" fill="#959595"/>
<path d="M128.609 26.9558H131.2V26.385H129.224V25.1556H130.892V24.6287H129.224V23.4871H131.2V22.9163H128.609V26.9558Z" fill="#959595"/>
<path d="M138.005 24.0142C138.005 23.619 137.873 23.3556 137.61 23.136C137.39 22.9604 137.127 22.8726 136.776 22.8726H135.195V26.9121H135.81V25.1997H136.6L137.434 26.9121H138.181L137.259 25.1119C137.698 24.9362 137.961 24.585 138.005 24.0142ZM135.81 24.6728V23.4434H136.776C136.951 23.4434 137.127 23.4873 137.215 23.5751C137.347 23.6629 137.434 23.8385 137.434 24.0142C137.434 24.1898 137.39 24.3215 137.259 24.4533C137.127 24.585 136.951 24.6289 136.732 24.6728H135.81Z" fill="#959595"/>
<path d="M142.045 26.9558H144.635V26.385H142.659V25.1556H144.372V24.6287H142.659V23.4871H144.635V22.9163H142.045V26.9558Z" fill="#959595"/>
</svg>
