<svg width="22" height="22" viewBox="0 0 22 22" fill="none" xmlns="http://www.w3.org/2000/svg">
<path d="M22 11C22 11.9387 20.8468 12.7123 20.6158 13.5777C20.3775 14.4723 20.9807 15.719 20.5278 16.5018C20.0677 17.2975 18.6835 17.3928 18.0382 18.0382C17.3928 18.6835 17.2975 20.0677 16.5018 20.5278C15.719 20.9807 14.4723 20.3775 13.5777 20.6158C12.7123 20.8468 11.9387 22 11 22C10.0613 22 9.28767 20.8468 8.42233 20.6158C7.52767 20.3775 6.281 20.9807 5.49817 20.5278C4.7025 20.0677 4.60717 18.6835 3.96183 18.0382C3.3165 17.3928 1.93233 17.2975 1.47217 16.5018C1.01933 15.719 1.6225 14.4723 1.38417 13.5777C1.15317 12.7123 0 11.9387 0 11C0 10.0613 1.15317 9.28767 1.38417 8.42233C1.6225 7.52767 1.01933 6.281 1.47217 5.49817C1.93233 4.7025 3.3165 4.60717 3.96183 3.96183C4.60717 3.3165 4.7025 1.93233 5.49817 1.47217C6.281 1.01933 7.52767 1.6225 8.42233 1.38417C9.28767 1.15317 10.0613 0 11 0C11.9387 0 12.7123 1.15317 13.5777 1.38417C14.4723 1.6225 15.719 1.01933 16.5018 1.47217C17.2975 1.93233 17.3928 3.3165 18.0382 3.96183C18.6835 4.60717 20.0677 4.7025 20.5278 5.49817C20.9807 6.281 20.3775 7.52767 20.6158 8.42233C20.8468 9.28767 22 10.0613 22 11Z" fill="#2568EF"/>
<path d="M14.1794 7.722L9.99209 11.9093L7.82142 9.7405C7.59504 9.51425 7.28807 9.38715 6.968 9.38715C6.64794 9.38715 6.34097 9.51425 6.11459 9.7405C5.88833 9.96689 5.76123 10.2739 5.76123 10.5939C5.76123 10.914 5.88833 11.221 6.11459 11.4473L9.15975 14.4925C9.3801 14.7126 9.67881 14.8362 9.99025 14.8362C10.3017 14.8362 10.6004 14.7126 10.8208 14.4925L15.8844 9.42884C16.1107 9.20245 16.2378 8.89549 16.2378 8.57542C16.2378 8.25536 16.1107 7.94839 15.8844 7.722C15.7725 7.60999 15.6396 7.52112 15.4933 7.46049C15.3471 7.39986 15.1903 7.36865 15.0319 7.36865C14.8736 7.36865 14.7168 7.39986 14.5705 7.46049C14.4242 7.52112 14.2913 7.60999 14.1794 7.722Z" fill="#FFFCEE"/>
</svg>
